<svg width="16" height="16" viewBox="0 0 16 16" fill="none" xmlns="http://www.w3.org/2000/svg">
<path d="M12.6673 5.99967C12.6673 6.96634 12.3807 7.85302 11.8873 8.59302C11.1673 9.65968 10.0273 10.413 8.70065 10.6063C8.47398 10.6463 8.24065 10.6663 8.00065 10.6663C7.76065 10.6663 7.52732 10.6463 7.30065 10.6063C5.97398 10.413 4.83398 9.65968 4.11398 8.59302C3.62065 7.85302 3.33398 6.96634 3.33398 5.99967C3.33398 3.41967 5.42065 1.33301 8.00065 1.33301C10.5807 1.33301 12.6673 3.41967 12.6673 5.99967Z" stroke="#181818" stroke-width="1.5" stroke-linecap="round" stroke-linejoin="round"/>
<path d="M14.1674 12.3129L13.0674 12.5729C12.8207 12.6329 12.6274 12.8196 12.574 13.0663L12.3407 14.0463C12.214 14.5796 11.534 14.7396 11.1807 14.3196L8.0007 10.6663L4.8207 14.3263C4.46737 14.7463 3.78737 14.5863 3.6607 14.0529L3.42737 13.0729C3.36737 12.8263 3.17404 12.6329 2.93404 12.5796L1.83404 12.3196C1.32737 12.1996 1.14737 11.5663 1.51404 11.1996L4.11404 8.59961C4.83404 9.66628 5.97404 10.4196 7.3007 10.613C7.52737 10.653 7.7607 10.673 8.0007 10.673C8.2407 10.673 8.47404 10.653 8.7007 10.613C10.0274 10.4196 11.1674 9.66628 11.8874 8.59961L14.4874 11.1996C14.854 11.5596 14.674 12.1929 14.1674 12.3129Z" stroke="#181818" stroke-width="1.5" stroke-linecap="round" stroke-linejoin="round"/>
<path d="M8.3873 3.98699L8.78063 4.77365C8.83397 4.88032 8.97397 4.98699 9.10063 5.00699L9.81397 5.12699C10.2673 5.20032 10.374 5.53366 10.0473 5.86032L9.49397 6.41365C9.40063 6.50698 9.3473 6.68699 9.38063 6.82033L9.54063 7.50699C9.6673 8.04699 9.38063 8.26031 8.90063 7.97365L8.23397 7.58031C8.11397 7.50698 7.91397 7.50698 7.79397 7.58031L7.1273 7.97365C6.6473 8.25365 6.36063 8.04699 6.4873 7.50699L6.6473 6.82033C6.67397 6.69366 6.6273 6.50698 6.53397 6.41365L5.98063 5.86032C5.65397 5.53366 5.76063 5.20699 6.21397 5.12699L6.9273 5.00699C7.0473 4.98699 7.1873 4.88032 7.24063 4.77365L7.63397 3.98699C7.8273 3.56033 8.17397 3.56033 8.3873 3.98699Z" stroke="#181818" stroke-width="1.5" stroke-linecap="round" stroke-linejoin="round"/>
</svg>
