<svg width="25" height="24" viewBox="0 0 25 24" fill="none" xmlns="http://www.w3.org/2000/svg">
<path d="M9.5 2C6.88 2 4.75 4.13 4.75 6.75C4.75 9.32 6.76 11.4 9.38 11.49C9.46 11.48 9.54 11.48 9.6 11.49C9.62 11.49 9.63 11.49 9.65 11.49C9.66 11.49 9.66 11.49 9.67 11.49C12.23 11.4 14.24 9.32 14.25 6.75C14.25 4.13 12.12 2 9.5 2Z" fill="#68AAE8"/>
<path d="M14.58 14.1499C11.79 12.2899 7.23996 12.2899 4.42996 14.1499C3.15996 14.9999 2.45996 16.1499 2.45996 17.3799C2.45996 18.6099 3.15996 19.7499 4.41996 20.5899C5.81996 21.5299 7.65996 21.9999 9.49996 21.9999C11.34 21.9999 13.18 21.5299 14.58 20.5899C15.84 19.7399 16.54 18.5999 16.54 17.3599C16.53 16.1299 15.84 14.9899 14.58 14.1499Z" fill="#68AAE8"/>
<path d="M20.4904 7.3401C20.6504 9.2801 19.2704 10.9801 17.3604 11.2101C17.3504 11.2101 17.3504 11.2101 17.3404 11.2101H17.3104C17.2504 11.2101 17.1904 11.2101 17.1404 11.2301C16.1704 11.2801 15.2804 10.9701 14.6104 10.4001C15.6404 9.4801 16.2304 8.1001 16.1104 6.6001C16.0404 5.7901 15.7604 5.0501 15.3404 4.4201C15.7204 4.2301 16.1604 4.1101 16.6104 4.0701C18.5704 3.9001 20.3204 5.3601 20.4904 7.3401Z" fill="#68AAE8"/>
<path d="M22.4902 16.5904C22.4102 17.5604 21.7902 18.4004 20.7502 18.9704C19.7502 19.5204 18.4902 19.7804 17.2402 19.7504C17.9602 19.1004 18.3802 18.2904 18.4602 17.4304C18.5602 16.1904 17.9702 15.0004 16.7902 14.0504C16.1202 13.5204 15.3402 13.1004 14.4902 12.7904C16.7002 12.1504 19.4802 12.5804 21.1902 13.9604C22.1102 14.7004 22.5802 15.6304 22.4902 16.5904Z" fill="#68AAE8"/>
</svg>
