<svg width="25" height="24" viewBox="0 0 25 24" fill="none" xmlns="http://www.w3.org/2000/svg">
<path opacity="0.4" d="M12.5 2.50977C17.7467 2.50977 22 6.76306 22 12.0098C22 17.2565 17.7467 21.5098 12.5 21.5098C7.25329 21.5098 3 17.2565 3 12.0098C3 6.76306 7.25329 2.50977 12.5 2.50977Z" fill="#68AAE8" stroke="#68AAE8"/>
<path d="M12.5 6.94043C10.43 6.94043 8.75 8.62043 8.75 10.6904C8.75 12.7204 10.34 14.3704 12.45 14.4304C12.48 14.4304 12.52 14.4304 12.54 14.4304C12.56 14.4304 12.59 14.4304 12.61 14.4304C12.62 14.4304 12.63 14.4304 12.63 14.4304C14.65 14.3604 16.24 12.7204 16.25 10.6904C16.25 8.62043 14.57 6.94043 12.5 6.94043Z" fill="#68AAE8"/>
<path d="M19.2807 19.3602C17.5007 21.0002 15.1207 22.0102 12.5007 22.0102C9.8807 22.0102 7.5007 21.0002 5.7207 19.3602C5.9607 18.4502 6.6107 17.6202 7.5607 16.9802C10.2907 15.1602 14.7307 15.1602 17.4407 16.9802C18.4007 17.6202 19.0407 18.4502 19.2807 19.3602Z" fill="#68AAE8"/>
</svg>
