<svg width="49" height="48" viewBox="0 0 49 48" fill="none" xmlns="http://www.w3.org/2000/svg">
<path d="M8.02344 42H6L7.80664 5H9.68555L10.1914 22.7773L8.02344 42ZM32.3047 40.8438L36.9297 40.627L37.291 6.15625L32.3047 6.37305V40.8438Z" fill="#5185B5"/>
<path d="M31.1484 7.81836L35.918 7.74609L36.0625 39.3984H31.1484V7.81836Z" fill="#F4EFE3"/>
<path d="M34.9062 5H9.68555L8.02344 42H34.9062V5Z" fill="#8EC9FF"/>
<path d="M11.7812 7.5293L10.3359 39.1094L31.9434 39.4707L32.3047 7.5293H11.7812ZM30.1367 36.291L12.793 36.6523L13.5879 9.5484L30.2812 9.625L30.1367 36.291Z" fill="#5185B5"/>
<path d="M18.4297 26.3184L26.2344 21.8379L19.2969 16.7793L18.4297 26.3184ZM14.5996 32.6055L28.6191 32.3887L28.5469 31.1602L14.6719 31.377L14.5996 32.6055Z" fill="#5185B5"/>
<path d="M17.5625 33.5449C18.4405 33.5449 19.1523 32.8655 19.1523 32.0273C19.1523 31.1892 18.4405 30.5098 17.5625 30.5098C16.6845 30.5098 15.9727 31.1892 15.9727 32.0273C15.9727 32.8655 16.6845 33.5449 17.5625 33.5449Z" fill="#5185B5"/>
<path d="M12.2871 33.4004L16.4062 37.5918H11.6367L12.2871 33.4004ZM27.1738 37.4473L31.0762 32.9668L31.1484 37.4473H27.1738ZM12.9375 12.5156L17.1289 8.90234L12.9375 8.75781V12.5156ZM26.8125 9.19141L30.6426 12.1543L30.7148 8.75781L26.8125 9.19141Z" fill="#5185B5"/>
<path d="M35.3398 18.5137L40.0371 13.7441L41.2656 15.9844L36.0625 19.6699L35.3398 18.5137ZM35.7734 21.4043L43 20.7539L42.7832 23.6445L35.7734 22.9219V21.4043ZM36.3516 24.7285L42.4219 27.4023L40.6875 29.498L35.4844 25.957L36.3516 24.7285Z" fill="#FFB703"/>
</svg>
