<svg width="16" height="16" viewBox="0 0 16 16" fill="none" xmlns="http://www.w3.org/2000/svg">
<path opacity="0.4" d="M8.00016 3.53378V14.2205C7.88683 14.2205 7.76683 14.2005 7.6735 14.1471L7.64683 14.1338C6.36683 13.4338 4.1335 12.7005 2.68683 12.5071L2.4935 12.4805C1.8535 12.4005 1.3335 11.8005 1.3335 11.1605V3.10712C1.3335 2.31378 1.98016 1.71378 2.7735 1.78045C4.1735 1.89378 6.2935 2.60045 7.48016 3.34045L7.64683 3.44045C7.74683 3.50045 7.8735 3.53378 8.00016 3.53378Z" fill="#72BBFF"/>
<path d="M14.6667 3.11303V11.1597C14.6667 11.7997 14.1467 12.3997 13.5067 12.4797L13.2867 12.5064C11.8333 12.6997 9.59333 13.4397 8.31333 14.1464C8.22667 14.1997 8.12 14.2197 8 14.2197V3.53303C8.12667 3.53303 8.25333 3.49969 8.35333 3.43969L8.46667 3.36636C9.65333 2.61969 11.78 1.90636 13.18 1.78636H13.22C14.0133 1.71969 14.6667 2.31303 14.6667 3.11303Z" fill="#72BBFF"/>
<path d="M5.1665 6.16016H3.6665C3.39317 6.16016 3.1665 5.93349 3.1665 5.66016C3.1665 5.38682 3.39317 5.16016 3.6665 5.16016H5.1665C5.43984 5.16016 5.6665 5.38682 5.6665 5.66016C5.6665 5.93349 5.43984 6.16016 5.1665 6.16016Z" fill="#72BBFF"/>
<path d="M5.6665 8.16016H3.6665C3.39317 8.16016 3.1665 7.93349 3.1665 7.66016C3.1665 7.38682 3.39317 7.16016 3.6665 7.16016H5.6665C5.93984 7.16016 6.1665 7.38682 6.1665 7.66016C6.1665 7.93349 5.93984 8.16016 5.6665 8.16016Z" fill="#72BBFF"/>
</svg>
