<svg width="52" height="46" viewBox="0 0 52 46" fill="none" xmlns="http://www.w3.org/2000/svg">
<path d="M51.1552 38.2701V39.4367L31.5869 39.5809C30.3475 41.0176 26.1981 41.2982 24.851 40.0833L5.51244 42.9536L0.4375 10.697L51.0443 6.64355L51.1552 38.2701Z" fill="#EFA889"/>
<path d="M51.1555 38.2701L32.1744 38.4057C30.9461 39.8297 26.7857 40.1412 25.4385 38.9081L6.10074 41.7863L1.2041 10.6376L51.0446 6.64355L51.1555 38.2701Z" fill="#EA977A"/>
<path d="M25.347 4.25L27.867 37.5241L6.80966 40.8802L2.49707 10.5303L3.16116 6.5014L25.347 4.25Z" fill="#CBDBF4"/>
<path d="M27.8647 37.5274C16.3859 31.8992 7.91365 39.1281 7.91365 39.1281L3.15332 6.49825C13.346 -2.07705 25.3439 4.25795 25.3439 4.25795L27.8647 37.5274Z" fill="#E6F0F8"/>
<path d="M7.98956 11.3817C7.92196 11.3014 7.889 11.1976 7.89792 11.093C7.90683 10.9884 7.95689 10.8916 8.03711 10.8238C14.884 5.06419 23.0274 9.25634 23.1098 9.29914C23.1558 9.32344 23.1967 9.35657 23.2299 9.39664C23.2632 9.43671 23.2882 9.48294 23.3036 9.53269C23.3189 9.58243 23.3244 9.63472 23.3195 9.68656C23.3147 9.73841 23.2997 9.78879 23.2754 9.83484C23.2511 9.88089 23.218 9.92171 23.1779 9.95495C23.1378 9.9882 23.0916 10.0132 23.0419 10.0286C22.9921 10.044 22.9398 10.0494 22.888 10.0446C22.8362 10.0398 22.7858 10.0248 22.7397 10.0005C22.6628 9.96005 14.9791 6.0199 8.54666 11.4301C8.46634 11.4977 8.36248 11.5306 8.25788 11.5217C8.15328 11.5128 8.05649 11.4627 7.98877 11.3825L7.98956 11.3817ZM9.4263 17.3902C9.39271 17.3504 9.36729 17.3044 9.35149 17.2548C9.3357 17.2052 9.32985 17.1529 9.33426 17.101C9.33868 17.0491 9.35328 16.9986 9.37723 16.9524C9.40118 16.9062 9.43401 16.8651 9.47385 16.8315C15.8793 11.4436 23.5005 15.3655 23.5766 15.4051C23.6696 15.4541 23.7393 15.538 23.7704 15.6384C23.8016 15.7388 23.7916 15.8474 23.7426 15.9404C23.6936 16.0334 23.6097 16.1032 23.5093 16.1343C23.4089 16.1654 23.3003 16.1554 23.2073 16.1064C23.136 16.0692 15.9752 12.3977 9.98419 17.4378C9.90387 17.5054 9.80001 17.5383 9.69541 17.5294C9.59081 17.5205 9.49402 17.4704 9.4263 17.3902ZM10.5682 23.6753C10.5007 23.5949 10.4679 23.4909 10.477 23.3863C10.486 23.2817 10.5363 23.185 10.6166 23.1174C16.6885 18.0107 23.9118 21.7282 23.9847 21.7654C24.0753 21.8158 24.1425 21.8996 24.172 21.999C24.2015 22.0983 24.1909 22.2052 24.1425 22.2969C24.0941 22.3885 24.0117 22.4575 23.9131 22.4891C23.8144 22.5207 23.7072 22.5124 23.6146 22.466C23.5472 22.4311 16.7851 18.9649 11.1269 23.7236C11.0871 23.7572 11.0411 23.7826 10.9915 23.7984C10.9419 23.8142 10.8896 23.8201 10.8377 23.8157C10.7858 23.8113 10.7353 23.7967 10.6891 23.7727C10.6428 23.7488 10.6018 23.7151 10.5682 23.6753ZM12.4844 30.1902C12.4508 30.1504 12.4254 30.1044 12.4096 30.0547C12.3938 30.0051 12.388 29.9529 12.3924 29.901C12.3968 29.8491 12.4114 29.7986 12.4354 29.7523C12.4593 29.7061 12.4921 29.665 12.532 29.6315C17.8906 25.1239 24.262 28.4055 24.3262 28.4388C24.4151 28.49 24.4807 28.5736 24.5092 28.6721C24.5376 28.7706 24.5269 28.8763 24.479 28.967C24.4312 29.0577 24.3501 29.1263 24.2528 29.1585C24.1554 29.1906 24.0494 29.1838 23.9569 29.1394C23.8975 29.1085 17.9857 26.0796 13.0423 30.2385C12.9619 30.306 12.858 30.3388 12.7534 30.3298C12.6488 30.3207 12.552 30.2705 12.4844 30.1902Z" fill="#3D4449"/>
<path d="M25.3477 4.2501L27.8677 37.5242L49.2008 37.4814L48.6239 6.83196L47.3259 2.95996L25.3477 4.2501Z" fill="#BBCFEF"/>
<path d="M47.8388 35.9263C47.8388 35.9263 38.8095 30.4409 28.685 36.9779C28.4171 37.1467 28.1413 37.3337 27.8648 37.5295L25.3447 4.25136C25.3447 4.25136 25.6213 4.03739 26.1293 3.70773C28.7737 2.0166 37.75 -2.78338 47.3229 2.96043L47.8388 35.9263Z" fill="#E6F0F8"/>
<path d="M28.6842 36.9763C28.4171 37.1451 28.1413 37.3321 27.8648 37.5278L25.3447 4.24969C25.3447 4.24969 25.6213 4.03572 26.1293 3.70605L28.6842 36.9763Z" fill="#BBCFEF"/>
<path d="M39.7014 43.2425C39.7561 45.6223 36.5974 46.8791 35.1036 44.4518V44.4431C34.8928 44.0215 34.7905 43.6015 34.831 43.1062L36.083 28.749C37.1073 28.9935 38.1707 29.0253 39.2077 28.8425L39.7014 43.2425Z" fill="#D30707"/>
<path d="M37.4112 44.1364C36.8803 44.6475 36.1734 44.8971 35.3159 44.7751C35.2993 44.7672 35.308 44.7672 35.308 44.7672C35.2291 44.6695 35.1605 44.5638 35.1036 44.4518V44.4431C34.8928 44.0215 34.7905 43.6015 34.831 43.1062L36.083 28.749C36.6203 28.8835 37.172 28.9521 37.7258 28.9535C37.7726 30.3007 37.5594 24.0814 38.1775 42.0926C38.1641 42.175 38.3685 43.2591 37.4112 44.1364Z" fill="#F04343"/>
<path d="M37.4112 44.1364C36.8803 44.6475 36.1734 44.8971 35.3159 44.7751C35.2993 44.7672 35.308 44.7672 35.308 44.7672C35.2291 44.6695 35.1605 44.5638 35.1036 44.4518V44.4431C34.8928 44.0215 34.7905 43.6015 34.831 43.1062L36.083 28.749C36.6203 28.8835 37.172 28.9521 37.7258 28.9535C37.7726 30.3007 37.5594 24.0814 38.1775 42.0926C38.1641 42.175 38.3685 43.2591 37.4112 44.1364Z" fill="#F04343"/>
<path d="M46.9834 20.0556C46.8471 25.1226 42.6232 29.1246 37.5483 28.9883C35.9604 28.9464 34.4109 28.4918 33.0521 27.6692C31.6933 26.8466 30.5721 25.6844 29.7988 24.2969C28.9783 22.8507 28.5717 21.2065 28.6236 19.5445C28.7599 14.4782 32.9837 10.4755 38.0586 10.6118C39.4793 10.6498 40.8715 11.0183 42.125 11.6879C43.3785 12.3575 44.4589 13.3099 45.2804 14.4695C46.4456 16.0942 47.0441 18.0571 46.9834 20.0556Z" fill="#613941"/>
<path d="M46.4548 19.2211C46.3193 24.2874 42.0954 28.2901 37.0205 28.1538C35.5998 28.1158 34.2076 27.7473 32.9541 27.0777C31.7006 26.4081 30.6203 25.4558 29.7988 24.2961C28.9784 22.8501 28.5718 21.2062 28.6235 19.5445C28.7598 14.4782 32.9837 10.4755 38.0586 10.6118C39.4792 10.6498 40.8715 11.0183 42.125 11.6879C43.3785 12.3575 44.4588 13.3099 45.2803 14.4695C46.072 15.8658 46.5063 17.5007 46.4548 19.2211Z" fill="#804F59"/>
<path d="M45.2976 20.0049C45.1978 23.7334 42.3853 26.7456 38.8105 27.2266C34.4908 27.9145 30.1639 24.3817 30.301 19.5967L30.328 19.2061C30.637 15.2509 34.0018 12.1848 38.0125 12.3021C42.1492 12.4114 45.4244 15.8682 45.2976 20.0049Z" fill="#E6F0F8"/>
<path d="M39.7012 43.2417C39.7543 45.5605 36.8246 46.7175 35.3157 44.7743C35.3078 44.7743 35.3078 44.7664 35.3078 44.7664C35.2991 44.7577 35.2991 44.7577 35.2991 44.749C35.2135 44.6555 35.1628 44.5532 35.1033 44.451V44.4423C34.612 43.4604 34.9115 42.8708 34.9242 42.118L39.6592 42.0752L39.7012 43.2417Z" fill="#FFB11C"/>
<path d="M37.9816 43.3265C37.5021 44.4042 36.3459 44.9724 35.2991 44.7489C35.2135 44.6554 35.1628 44.5532 35.1033 44.451V44.4423C34.612 43.4604 34.9115 42.8708 34.9242 42.1179L38.1773 42.0918C38.1717 42.171 38.2589 42.6671 37.9816 43.3265Z" fill="#FFCA6C"/>
<path d="M38.127 21.7006C38.1309 21.8227 38.0509 21.8971 37.9542 21.9003C37.0159 21.8987 37.2141 22.1325 37.157 20.8416C37.1134 19.3105 39.3498 19.217 39.3062 17.64C39.2475 15.5511 35.8162 15.6018 35.8764 17.7517L35.8803 17.8817C35.8891 18.167 35.5253 18.0442 35.1346 18.0862C35.1109 18.0874 35.0871 18.084 35.0646 18.0759C35.0422 18.0679 35.0216 18.0555 35.0041 18.0394C34.9865 18.0233 34.9723 18.0039 34.9623 17.9822C34.9524 17.9606 34.9468 17.9372 34.946 17.9134L34.9436 17.8318C34.8486 14.44 40.1438 14.4083 40.227 17.5124C40.2872 19.6267 38.0731 19.8066 38.1056 20.9184L38.127 21.7006ZM37.0516 23.2721C37.035 22.6833 37.7466 22.3306 38.1999 22.7586C38.6318 23.1667 38.3616 23.9076 37.7466 23.9274C37.568 23.9311 37.395 23.8645 37.2651 23.7419C37.1351 23.6193 37.0584 23.4506 37.0516 23.2721Z" fill="#3D4449"/>
</svg>
