<svg width="16" height="17" viewBox="0 0 16 17" fill="none" xmlns="http://www.w3.org/2000/svg">
<path d="M7.33333 1.83301C4.81917 1.83301 3.5621 1.83301 2.78105 2.5855C2 3.33799 2 4.54911 2 6.97136V12.4869C2 14.0241 2 14.7927 2.51523 15.0679C3.51298 15.6006 5.38453 13.8231 6.27333 13.2879C6.7888 12.9775 7.04653 12.8223 7.33333 12.8223C7.62013 12.8223 7.87787 12.9775 8.39333 13.2879C9.28213 13.8231 11.1537 15.6006 12.1515 15.0679C12.6667 14.7927 12.6667 14.0241 12.6667 12.4869V9.16634" stroke="#484848" stroke-width="1.5"/>
<path d="M11.3332 7.16634V1.83301M8.6665 4.49967H13.9998" stroke="#484848" stroke-width="1.5"/>
</svg>
