<svg width="25" height="24" viewBox="0 0 25 24" fill="none" xmlns="http://www.w3.org/2000/svg">
<path d="M10.0554 2.51378C3.42429 2.88475 -0.243489 10.8061 3.767 17.4702L2.18329 21.459M10.0554 2.51378C10.2189 2.50464 10.3842 2.5 10.5512 2.5M10.0554 2.51378L14.0215 2.5M2.18329 21.459L6.64177 20.0165C8.28529 21.3836 15.1597 21.5905 17.4918 20.0165C20.4663 18.5151 23.4408 15.0118 21.4578 8.0052C20.9621 6.50378 18.4833 2.5 13.5257 2.5M2.18329 21.459C2.1038 21.484 2.15279 21.5372 2.18329 21.459Z" stroke="#979CA8" stroke-width="1.5"/>
<path d="M8.35599 13.1876L10.1803 8.53227L12.0037 13.1876M8.35599 13.1876L7.40747 15.6635M8.35599 13.1876H12.0037M12.0037 13.1876L13.0176 15.6635M15.5747 8.23755V15.8124" stroke="#979CA8" stroke-width="1.5" stroke-linejoin="bevel"/>
</svg>
