<svg width="25" height="24" viewBox="0 0 25 24" fill="none" xmlns="http://www.w3.org/2000/svg">
<path d="M9.66055 10.87C9.56055 10.86 9.44055 10.86 9.33055 10.87C6.95055 10.79 5.06055 8.84 5.06055 6.44C5.06055 3.99 7.04055 2 9.50055 2C11.9505 2 13.9405 3.99 13.9405 6.44C13.9305 8.84 12.0405 10.79 9.66055 10.87Z" stroke="#969696" stroke-width="1.5" stroke-linecap="round" stroke-linejoin="round"/>
<path d="M16.9093 4C18.8493 4 20.4093 5.57 20.4093 7.5C20.4093 9.39 18.9093 10.93 17.0393 11C16.9593 10.99 16.8693 10.99 16.7793 11" stroke="#969696" stroke-width="1.5" stroke-linecap="round" stroke-linejoin="round"/>
<path d="M4.6607 14.56C2.2407 16.18 2.2407 18.82 4.6607 20.43C7.4107 22.27 11.9207 22.27 14.6707 20.43C17.0907 18.81 17.0907 16.17 14.6707 14.56C11.9307 12.73 7.4207 12.73 4.6607 14.56Z" stroke="#969696" stroke-width="1.5" stroke-linecap="round" stroke-linejoin="round"/>
<path d="M18.8398 20C19.5598 19.85 20.2398 19.56 20.7998 19.13C22.3598 17.96 22.3598 16.03 20.7998 14.86C20.2498 14.44 19.5798 14.16 18.8698 14" stroke="#969696" stroke-width="1.5" stroke-linecap="round" stroke-linejoin="round"/>
</svg>
