<svg width="20" height="19" viewBox="0 0 20 19" fill="none" xmlns="http://www.w3.org/2000/svg">
<path fill-rule="evenodd" clip-rule="evenodd" d="M4.7092 3.07143C4.50872 3.07143 4.31644 3.15108 4.17468 3.29284C4.03291 3.43461 3.95327 3.62688 3.95327 3.82737V14.0973L5.68654 12.364C5.82831 12.2223 6.02058 12.1426 6.22107 12.1426H15.2923C15.4927 12.1426 15.685 12.063 15.8268 11.9212C15.9685 11.7794 16.0482 11.5872 16.0482 11.3867V3.82737C16.0482 3.62688 15.9685 3.43461 15.8268 3.29284C15.685 3.15108 15.4927 3.07143 15.2923 3.07143H4.7092ZM3.10563 2.22379C3.53092 1.7985 4.10775 1.55957 4.7092 1.55957H15.2923C15.8937 1.55957 16.4705 1.7985 16.8958 2.22379C17.3211 2.64909 17.5601 3.22591 17.5601 3.82737V11.3867C17.5601 11.9881 17.3211 12.565 16.8958 12.9903C16.4705 13.4156 15.8937 13.6545 15.2923 13.6545H6.53418L3.73186 16.4568C3.51567 16.673 3.19053 16.7377 2.90806 16.6207C2.62558 16.5037 2.44141 16.228 2.44141 15.9223V3.82737C2.44141 3.22591 2.68033 2.64909 3.10563 2.22379Z" fill="#B1AFAA"/>
</svg>
