<svg width="16" height="16" viewBox="0 0 16 16" fill="none" xmlns="http://www.w3.org/2000/svg">
<path d="M7.33333 1.33301C4.81917 1.33301 3.5621 1.33301 2.78105 2.0855C2 2.83799 2 4.04911 2 6.47136V11.9869C2 13.5241 2 14.2927 2.51523 14.5679C3.51298 15.1006 5.38453 13.3231 6.27333 12.7879C6.7888 12.4775 7.04653 12.3223 7.33333 12.3223C7.62013 12.3223 7.87787 12.4775 8.39333 12.7879C9.28213 13.3231 11.1537 15.1006 12.1515 14.5679C12.6667 14.2927 12.6667 13.5241 12.6667 11.9869V8.66634" stroke="#484848" stroke-width="1.5"/>
<path d="M11.3332 6.66634V1.33301M8.6665 3.99967H13.9998" stroke="#484848" stroke-width="1.5"/>
</svg>
