<svg width="16" height="16" viewBox="0 0 16 16" fill="none" xmlns="http://www.w3.org/2000/svg">
<path fill-rule="evenodd" clip-rule="evenodd" d="M2.69977 4.7968C2.82284 4.67388 2.98966 4.60484 3.1636 4.60484C3.33753 4.60484 3.50436 4.67388 3.62743 4.7968L7.53934 8.70871L11.4513 4.7968C11.5113 4.73231 11.5838 4.68059 11.6643 4.64471C11.7448 4.60884 11.8317 4.58955 11.9199 4.58799C12.008 4.58644 12.0955 4.60265 12.1773 4.63566C12.259 4.66867 12.3332 4.71781 12.3956 4.78014C12.4579 4.84246 12.507 4.9167 12.54 4.99843C12.5731 5.08016 12.5893 5.1677 12.5877 5.25583C12.5862 5.34396 12.5669 5.43088 12.531 5.51139C12.4951 5.5919 12.4434 5.66436 12.3789 5.72445L8.00317 10.1002C7.8801 10.2231 7.71327 10.2922 7.53934 10.2922C7.3654 10.2922 7.19858 10.2231 7.07551 10.1002L2.69977 5.72445C2.57685 5.60139 2.50781 5.43456 2.50781 5.26062C2.50781 5.08669 2.57685 4.91986 2.69977 4.7968Z" fill="#969696"/>
</svg>
