<svg width="25" height="24" viewBox="0 0 25 24" fill="none" xmlns="http://www.w3.org/2000/svg">
<path d="M16.5004 18.0003C14.9233 18.0003 13.4469 17.3829 12.3516 16.335" stroke="#A8A8A8" stroke-width="2" stroke-linecap="round" stroke-linejoin="round"/>
<path d="M7.65475 8.05196C6.28876 6.76008 4.45637 6 2.5 6" stroke="#A8A8A8" stroke-width="2" stroke-linecap="round" stroke-linejoin="round"/>
<path d="M23.1432 19.0439C23.7699 18.6522 23.7699 17.7396 23.1432 17.3479L18.03 14.1521C17.364 13.7359 16.5 14.2147 16.5 15.0001V21.3916C16.5 22.1771 17.364 22.6559 18.03 22.2396L23.1432 19.0439Z" fill="#A8A8A8"/>
<path d="M16.5 6V6C14.0778 6 11.8932 7.45643 10.9615 9.69231L9.42308 13.3846C8.25856 16.1795 5.52776 18 2.5 18V18" stroke="#A8A8A8" stroke-width="2" stroke-linecap="round" stroke-linejoin="round"/>
<path d="M22.1432 7.04388C22.7699 6.65222 22.7699 5.73956 22.1432 5.34789L17.03 2.15214C16.364 1.73586 15.5 2.2147 15.5 3.00013V9.39164C15.5 10.1771 16.364 10.6559 17.03 10.2396L22.1432 7.04388Z" fill="#A8A8A8"/>
</svg>
