<svg width="61" height="60" viewBox="0 0 61 60" fill="none" xmlns="http://www.w3.org/2000/svg">
<path d="M30.5 5C23.95 5 18.625 10.325 18.625 16.875C18.625 23.3 23.65 28.5 30.2 28.725C30.4 28.7 30.6 28.7 30.75 28.725C30.8 28.725 30.825 28.725 30.875 28.725C30.9 28.725 30.9 28.725 30.925 28.725C37.325 28.5 42.35 23.3 42.375 16.875C42.375 10.325 37.05 5 30.5 5Z" fill="#3F678C"/>
<path d="M43.2004 35.3752C36.2254 30.7252 24.8504 30.7252 17.8254 35.3752C14.6504 37.5002 12.9004 40.3752 12.9004 43.4502C12.9004 46.5252 14.6504 49.3752 17.8004 51.4752C21.3004 53.8252 25.9004 55.0002 30.5004 55.0002C35.1004 55.0002 39.7004 53.8252 43.2004 51.4752C46.3504 49.3502 48.1004 46.5002 48.1004 43.4002C48.0754 40.3252 46.3504 37.4752 43.2004 35.3752Z" fill="#3F678C"/>
</svg>
