<svg width="49" height="48" viewBox="0 0 49 48" fill="none" xmlns="http://www.w3.org/2000/svg">
<g clip-path="url(#clip0_24141_2473)">
<path opacity="0.4" d="M42.6339 42.0818C39.8026 43.4931 36.1142 42.9303 33.8457 40.7398C32.3132 39.2592 31.456 37.2158 30.0187 35.6487C27.326 32.7135 22.5726 31.9343 19.0833 33.8477C14.9517 36.121 12.4284 42.0932 7.35999 42.2895C4.52874 42.4021 1.80137 40.099 1.43771 37.2938C1.07406 34.4799 3.11743 31.562 5.88812 30.9473C9.96587 30.0188 11.0219 28.0961 7.07434 23.9861C5.05515 21.905 3.70121 19.5798 5.83618 16.7737C7.78618 14.2535 12.0709 13.319 15.7326 15.5615C21.7952 19.2901 16.6535 18.9291 21.5251 12.0117C26.117 5.42808 31.2587 10.0641 34.4778 10.4272C37.4909 10.7822 40.4607 8.89467 43.4565 9.38817C48.0958 10.155 49.9127 15.9483 46.5214 19.224C44.3482 21.328 40.8763 21.4492 38.4605 23.2501C36.4982 24.7167 36.7979 26.5695 38.6943 27.2503C50.751 31.5788 47.2013 39.7841 42.6339 42.0818ZM10.8849 5.14627C8.43062 5.18658 7.42777 7.92549 10.4881 10.1858C13.8327 12.6562 16.3156 10.8173 16.2863 9.07111C16.26 7.50202 13.9178 5.09649 10.8849 5.14627Z" fill="#BEE0FF"/>
<path d="M15.4946 35.5433L23.2168 25.4925L18.7949 22.9092L12.1497 35.5433H15.4946Z" fill="#A67C52"/>
<path d="M20.3143 23.7988L14.1398 35.5435H12.1509L18.7943 22.9082L20.3143 23.7988Z" fill="#7E5D3E"/>
<path d="M37.5173 35.5433L30.872 22.9092L26.4502 25.4925L34.1724 35.5433H37.5173Z" fill="#A67C52"/>
<path d="M36.3484 35.5435H34.1738L26.4509 25.492L30.8726 22.9082L31.3824 23.8807L28.6256 25.492L36.3484 35.5435Z" fill="#7E5D3E"/>
<path d="M32.5787 28.8215C32.5787 30.2218 31.4435 31.3569 30.0433 31.3569H19.6228C18.2225 31.3569 17.0874 30.2218 17.0874 28.8215C17.0874 27.4213 18.2225 26.2861 19.6228 26.2861H30.0432C31.4435 26.2861 32.5787 27.4213 32.5787 28.8215Z" fill="#A67C52"/>
<path d="M32.465 29.5767C32.1408 30.609 31.1778 31.3579 30.045 31.3579H19.622C18.2216 31.3579 17.0886 30.2219 17.0886 28.8214C17.0883 28.4883 17.1537 28.1583 17.2811 27.8505C17.4086 27.5427 17.5955 27.263 17.8313 27.0276C18.1198 26.737 18.4754 26.5219 18.8667 26.4014C18.7919 26.6451 18.7537 26.8986 18.7534 27.1535C18.7534 28.554 19.8895 29.69 21.2899 29.69H31.7098C31.9742 29.69 32.2259 29.6491 32.465 29.5767Z" fill="#7E5D3E"/>
<path d="M40.5685 28.6904C34.7469 26.71 29.4122 26.4009 24.8333 28.6904C20.2545 26.4009 14.9197 26.71 9.09814 28.6904L14.0624 15.1832L15.7189 13.4453L24.8333 26.4841L33.9478 13.4453L35.6043 15.1832L40.5685 28.6904Z" fill="#6DB02F"/>
<path d="M40.5685 28.6896C34.7465 26.7101 29.4123 26.4018 24.8333 28.6896C20.2544 26.4018 14.9201 26.7101 9.09814 28.6896L14.061 15.1825L15.7194 13.4453L16.3582 14.358L12.2482 25.5394C16.1254 24.2208 19.7886 23.6449 23.1559 24.0855L24.8332 26.4835L26.0511 24.7432C26.7136 24.9616 27.3594 25.2277 27.9834 25.5394C31.2815 23.8904 34.9699 23.5914 38.954 24.2932L40.5685 28.6896Z" fill="#8ACC34"/>
<path d="M24.8334 13.4448V26.4844C21.1349 23.5977 15.8765 23.5977 11.1711 26.4844L15.719 13.4448C18.7078 12.1278 22.304 12.1278 24.8334 13.4448Z" fill="white"/>
<path d="M24.8334 22.4964V26.4836C21.1356 23.5978 15.8769 23.5978 11.1721 26.4836L15.7196 13.4455C16.326 13.1783 16.9547 12.9645 17.5983 12.8066L14.7628 20.9354C14.3947 21.9834 15.4111 22.9904 16.4528 22.6065C19.345 21.5427 22.2874 21.505 24.8334 22.4964Z" fill="#BAE3F5"/>
<path d="M24.8335 13.4448V26.4844C28.532 23.5977 33.7905 23.5977 38.4958 26.4844L33.9479 13.4448C30.9591 12.1278 27.363 12.1278 24.8335 13.4448Z" fill="white"/>
<path d="M38.4947 26.4834C33.7899 23.5976 28.5312 23.5976 24.8335 26.4834V13.4452C25.7304 12.9762 26.7563 12.6773 27.8452 12.542V20.0099C27.8452 21.4355 29.2614 22.4332 30.5988 21.9453C32.5091 21.2499 34.6302 21.124 36.7796 21.5677L38.4947 26.4834Z" fill="#BAE3F5"/>
<path d="M40.7937 28.9106C40.8351 28.8681 40.8637 28.8147 40.8761 28.7566C40.8885 28.6986 40.8842 28.6382 40.8637 28.5824L35.8995 15.0751C35.8847 15.0346 35.8617 14.9976 35.8319 14.9665L34.1796 13.2331C34.1303 13.191 34.1089 13.1725 34.0746 13.1574C31.048 11.8233 27.4425 11.8062 24.8331 13.0969C22.2242 11.8059 18.6193 11.8235 15.5919 13.1574C15.5582 13.1723 15.5299 13.1953 15.5038 13.2203C15.4108 13.3084 14.6595 14.1034 13.8346 14.9665C13.8047 14.9976 13.7817 15.0346 13.767 15.0751L8.80273 28.5824C8.78227 28.6382 8.77799 28.6986 8.79038 28.7566C8.80277 28.8147 8.83133 28.8681 8.87276 28.9106C8.91429 28.9532 8.96701 28.9831 9.02483 28.9969C9.08264 29.0108 9.14319 29.008 9.19948 28.9888C11.6528 28.1542 13.9246 27.6534 16.0378 27.4758L11.8711 35.3976C11.8459 35.4455 11.8334 35.4992 11.835 35.5533C11.8366 35.6075 11.852 35.6603 11.88 35.7068C11.908 35.7532 11.9476 35.7915 11.9948 35.8181C12.042 35.8448 12.0953 35.8587 12.1495 35.8587H15.4945C15.5427 35.8587 15.5903 35.8476 15.6336 35.8263C15.6769 35.805 15.7147 35.7741 15.7441 35.7358L18.9337 31.5843C19.1548 31.6395 19.3849 31.6721 19.6228 31.6721H30.0434C30.2816 31.6721 30.5118 31.6395 30.733 31.5842L33.9228 35.7359C33.9522 35.7742 33.99 35.8051 34.0332 35.8264C34.0765 35.8477 34.1241 35.8588 34.1723 35.8588H37.5173C37.5715 35.8588 37.6248 35.8449 37.672 35.8182C37.7193 35.7916 37.7588 35.7532 37.7869 35.7069C37.8148 35.6604 37.8303 35.6076 37.8319 35.5534C37.8334 35.4993 37.821 35.4456 37.7958 35.3977L33.629 27.4758C35.742 27.6535 38.0136 28.1543 40.467 28.9889C40.5233 29.008 40.5838 29.0108 40.6416 28.997C40.6995 28.9831 40.7522 28.9532 40.7937 28.9106ZM33.696 13.6792L37.9189 25.7873C33.4977 23.376 28.7219 23.4023 25.1479 25.8638V13.6391C27.5577 12.4632 30.8744 12.4776 33.696 13.6792ZM22.8334 13.0449C21.8323 15.0085 22.2272 18.9317 22.2459 19.1092C22.2502 19.1503 22.2626 19.1901 22.2823 19.2264C22.3019 19.2627 22.3286 19.2948 22.3607 19.3208C22.3928 19.3468 22.4297 19.3663 22.4693 19.378C22.5089 19.3898 22.5504 19.3936 22.5915 19.3893C22.6326 19.385 22.6724 19.3727 22.7087 19.353C22.745 19.3333 22.7771 19.3066 22.8031 19.2745C22.8291 19.2425 22.8486 19.2056 22.8603 19.166C22.8721 19.1264 22.8759 19.0848 22.8716 19.0437C22.8675 19.0013 22.4575 14.9302 23.4547 13.2175C23.8241 13.3355 24.181 13.4743 24.5186 13.6391V25.8637C22.7128 24.6199 20.6005 23.9982 18.3815 23.9982C16.2094 23.9982 13.9348 24.5946 11.7476 25.7874L15.9706 13.6793C18.1799 12.7385 20.6905 12.5289 22.8334 13.0449ZM15.3393 35.2293H12.6708L16.7768 27.4227C16.9031 27.4167 17.0266 27.4166 17.1517 27.4129C16.9125 27.8289 16.7727 28.3086 16.7727 28.822C16.7727 29.9231 17.4015 30.8784 18.3178 31.3527L15.3393 35.2293ZM19.6228 31.0426C18.3984 31.0426 17.402 30.0464 17.402 28.8221C17.402 28.282 17.5987 27.789 17.9209 27.4041C20.4022 27.4312 22.6498 27.9511 24.6925 28.9725C24.7362 28.9944 24.7844 29.0057 24.8333 29.0057C24.8821 29.0057 24.9303 28.9944 24.974 28.9725C27.017 27.951 29.2645 27.431 31.7459 27.4039C32.0675 27.7891 32.2642 28.2821 32.2642 28.8221C32.2642 30.0464 31.2679 31.0426 30.0435 31.0426H19.6228ZM36.9961 35.2293H34.3276L31.3489 31.3526C32.265 30.8782 32.8935 29.923 32.8935 28.8221C32.8935 28.3086 32.7536 27.8289 32.5144 27.4129C32.6397 27.4166 32.7634 27.4166 32.8899 27.4228L36.9961 35.2293ZM24.8332 28.34C20.0203 25.9951 14.6945 26.5542 9.61836 28.1873L14.3352 15.3534L14.942 14.7168L10.8738 26.3812C10.8524 26.4425 10.8505 26.5089 10.8684 26.5713C10.8862 26.6337 10.9229 26.6891 10.9735 26.7298C11.024 26.7705 11.0859 26.7946 11.1507 26.7987C11.2155 26.8029 11.28 26.7869 11.3353 26.753C15.9394 23.9292 21.037 23.9211 24.6395 26.7327C24.685 26.7684 24.7699 26.7994 24.8331 26.7994C24.896 26.7994 24.9808 26.7687 25.0267 26.7328C28.6295 23.9209 33.7275 23.9288 38.331 26.753C38.3863 26.787 38.4508 26.803 38.5156 26.7989C38.5804 26.7947 38.6424 26.7707 38.6929 26.7299C38.7435 26.6892 38.7802 26.6338 38.798 26.5714C38.8159 26.5089 38.8139 26.4425 38.7925 26.3812L34.7242 14.7168L35.3311 15.3534L40.0479 28.1873C34.0119 26.2451 29.0273 26.2962 24.8332 28.34Z" fill="black"/>
</g>
<defs>
<clipPath id="clip0_24141_2473">
<rect width="48" height="48" fill="white" transform="translate(0.833252)"/>
</clipPath>
</defs>
</svg>
