<svg width="24" height="24" viewBox="0 0 24 24" fill="none" xmlns="http://www.w3.org/2000/svg">
<path d="M2.83333 5.79994H5.11333C5.2922 6.43169 5.68264 6.98938 6.22444 7.38698C6.76623 7.78458 7.42927 8 8.11125 8C8.79323 8 9.45627 7.78458 9.99806 7.38698C10.5399 6.98938 10.9303 6.43169 11.1092 5.79994H21.1667C21.3877 5.79994 21.5996 5.71566 21.7559 5.56565C21.9122 5.41563 22 5.21216 22 5C22 4.78784 21.9122 4.58437 21.7559 4.43435C21.5996 4.28433 21.3877 4.20006 21.1667 4.20006H11.1092C10.9303 3.56831 10.5399 3.01062 9.99806 2.61302C9.45627 2.21542 8.79323 2 8.11125 2C7.42927 2 6.76623 2.21542 6.22444 2.61302C5.68264 3.01062 5.2922 3.56831 5.11333 4.20006H2.83333C2.61232 4.20006 2.40036 4.28433 2.24408 4.43435C2.0878 4.58437 2 4.78784 2 5C2 5.21216 2.0878 5.41563 2.24408 5.56565C2.40036 5.71566 2.61232 5.79994 2.83333 5.79994ZM8.11083 3.6001C8.39926 3.6001 8.68122 3.6822 8.92104 3.83602C9.16086 3.98985 9.34778 4.20848 9.45816 4.46428C9.56854 4.72008 9.59742 5.00155 9.54115 5.27311C9.48488 5.54466 9.34598 5.7941 9.14203 5.98988C8.93808 6.18566 8.67823 6.31899 8.39534 6.373C8.11245 6.42702 7.81923 6.3993 7.55275 6.29334C7.28628 6.18739 7.05852 6.00796 6.89827 5.77774C6.73803 5.54753 6.6525 5.27687 6.6525 5C6.65294 4.62885 6.80673 4.27303 7.08012 4.01059C7.35352 3.74815 7.72419 3.60052 8.11083 3.6001Z" fill="white"/>
<path d="M21.1667 11.2003H18.8867C18.7081 10.5685 18.3178 10.0108 17.7761 9.61313C17.2343 9.21546 16.5712 9 15.8892 9C15.2071 9 14.544 9.21546 14.0023 9.61313C13.4605 10.0108 13.0702 10.5685 12.8917 11.2003H2.83333C2.61232 11.2003 2.40036 11.2845 2.24408 11.4345C2.0878 11.5845 2 11.7879 2 12C2 12.2121 2.0878 12.4155 2.24408 12.5655C2.40036 12.7155 2.61232 12.7997 2.83333 12.7997H12.8917C13.0702 13.4315 13.4605 13.9892 14.0023 14.3869C14.544 14.7845 15.2071 15 15.8892 15C16.5712 15 17.2343 14.7845 17.7761 14.3869C18.3178 13.9892 18.7081 13.4315 18.8867 12.7997H21.1667C21.3877 12.7997 21.5996 12.7155 21.7559 12.5655C21.9122 12.4155 22 12.2121 22 12C22 11.7879 21.9122 11.5845 21.7559 11.4345C21.5996 11.2845 21.3877 11.2003 21.1667 11.2003ZM15.8892 13.3995C15.6007 13.3995 15.3188 13.3175 15.079 13.1637C14.8391 13.0099 14.6522 12.7913 14.5418 12.5356C14.4315 12.2798 14.4026 11.9984 14.4589 11.727C14.5151 11.4555 14.654 11.2061 14.858 11.0104C15.0619 10.8146 15.3218 10.6814 15.6047 10.6274C15.8875 10.5734 16.1808 10.6011 16.4472 10.707C16.7137 10.8129 16.9415 10.9923 17.1017 11.2225C17.262 11.4526 17.3475 11.7232 17.3475 12C17.3471 12.3711 17.1933 12.7268 16.9199 12.9892C16.6465 13.2515 16.2758 13.3991 15.8892 13.3995Z" fill="white"/>
<path d="M21.1667 18.2001H11.1092C10.9303 17.5683 10.5399 17.0106 9.99806 16.613C9.45627 16.2154 8.79323 16 8.11125 16C7.42927 16 6.76623 16.2154 6.22444 16.613C5.68264 17.0106 5.2922 17.5683 5.11333 18.2001H2.83333C2.61232 18.2001 2.40036 18.2843 2.24408 18.4344C2.0878 18.5844 2 18.7878 2 19C2 19.2122 2.0878 19.4156 2.24408 19.5656C2.40036 19.7157 2.61232 19.7999 2.83333 19.7999H5.11333C5.2922 20.4317 5.68264 20.9894 6.22444 21.387C6.76623 21.7846 7.42927 22 8.11125 22C8.79323 22 9.45627 21.7846 9.99806 21.387C10.5399 20.9894 10.9303 20.4317 11.1092 19.7999H21.1667C21.3877 19.7999 21.5996 19.7157 21.7559 19.5656C21.9122 19.4156 22 19.2122 22 19C22 18.7878 21.9122 18.5844 21.7559 18.4344C21.5996 18.2843 21.3877 18.2001 21.1667 18.2001ZM8.11083 20.3999C7.8224 20.3999 7.54045 20.3178 7.30063 20.164C7.0608 20.0102 6.87389 19.7915 6.76351 19.5357C6.65313 19.2799 6.62425 18.9984 6.68052 18.7269C6.73679 18.4553 6.87568 18.2059 7.07964 18.0101C7.28359 17.8143 7.54344 17.681 7.82633 17.627C8.10922 17.573 8.40244 17.6007 8.66891 17.7067C8.93539 17.8126 9.16315 17.992 9.32339 18.2223C9.48364 18.4525 9.56917 18.7231 9.56917 19C9.56851 19.3711 9.41465 19.7268 9.1413 19.9892C8.86795 20.2516 8.4974 20.3993 8.11083 20.3999Z" fill="white"/>
</svg>
