<svg width="32" height="32" viewBox="0 0 32 32" fill="none" xmlns="http://www.w3.org/2000/svg">
<g clip-path="url(#clip0_24426_2419)">
<path d="M26.6667 12.0001H16V7.21879C15.9999 6.95512 15.9217 6.69739 15.7752 6.47818C15.6287 6.25897 15.4205 6.08811 15.1769 5.98722C14.9333 5.88633 14.6652 5.85992 14.4066 5.91135C14.148 5.96277 13.9105 6.08971 13.724 6.27612L4.94267 15.0575C4.69271 15.3075 4.55228 15.6466 4.55228 16.0001C4.55228 16.3537 4.69271 16.6928 4.94267 16.9428L13.724 25.7241C13.9105 25.9105 14.148 26.0375 14.4066 26.0889C14.6652 26.1403 14.9333 26.1139 15.1769 26.013C15.4205 25.9121 15.6287 25.7413 15.7752 25.5221C15.9217 25.3029 15.9999 25.0451 16 24.7815V20.0001H26.6667C27.0203 20.0001 27.3594 19.8596 27.6095 19.6096C27.8595 19.3596 28 19.0204 28 18.6668V13.3335C28 12.9798 27.8595 12.6407 27.6095 12.3906C27.3594 12.1406 27.0203 12.0001 26.6667 12.0001Z" stroke="#72BBFF" stroke-opacity="0.24" stroke-width="2" stroke-linecap="round" stroke-linejoin="round"/>
</g>
<defs>
<clipPath id="clip0_24426_2419">
<rect width="32" height="32" fill="white" transform="matrix(-1 0 0 1 32 0)"/>
</clipPath>
</defs>
</svg>
