<svg width="33" height="32" viewBox="0 0 33 32" fill="none" xmlns="http://www.w3.org/2000/svg">
<g clip-path="url(#clip0_24426_2425)">
<path d="M5.83333 12.0001H16.5V7.21879C16.5001 6.95512 16.5783 6.69739 16.7248 6.47818C16.8713 6.25897 17.0795 6.08811 17.3231 5.98722C17.5667 5.88633 17.8348 5.85992 18.0934 5.91135C18.352 5.96277 18.5895 6.08971 18.776 6.27612L27.5573 15.0575C27.8073 15.3075 27.9477 15.6466 27.9477 16.0001C27.9477 16.3537 27.8073 16.6928 27.5573 16.9428L18.776 25.7241C18.5895 25.9105 18.352 26.0375 18.0934 26.0889C17.8348 26.1403 17.5667 26.1139 17.3231 26.013C17.0795 25.9121 16.8713 25.7413 16.7248 25.5221C16.5783 25.3029 16.5001 25.0451 16.5 24.7815V20.0001H5.83333C5.47971 20.0001 5.14057 19.8596 4.89052 19.6096C4.64048 19.3596 4.5 19.0204 4.5 18.6668V13.3335C4.5 12.9798 4.64048 12.6407 4.89052 12.3906C5.14057 12.1406 5.47971 12.0001 5.83333 12.0001Z" stroke="#72BBFF" stroke-width="2" stroke-linecap="round" stroke-linejoin="round"/>
</g>
<defs>
<clipPath id="clip0_24426_2425">
<rect width="32" height="32" fill="white" transform="translate(0.5)"/>
</clipPath>
</defs>
</svg>
