<svg width="24" height="24" viewBox="0 0 24 24" fill="none" xmlns="http://www.w3.org/2000/svg">
<path d="M1.5 8.96667C1.5 6.35309 1.5 5.0463 2.00864 4.04804C2.45605 3.16995 3.16995 2.45605 4.04804 2.00864C5.0463 1.5 6.35309 1.5 8.96667 1.5H15.0333C17.6469 1.5 18.9537 1.5 19.952 2.00864C20.83 2.45605 21.544 3.16995 21.9914 4.04804C22.5 5.0463 22.5 6.35309 22.5 8.96667V15.0333C22.5 17.6469 22.5 18.9537 21.9914 19.952C21.544 20.83 20.83 21.544 19.952 21.9914C18.9537 22.5 17.6469 22.5 15.0333 22.5H8.96667C6.35309 22.5 5.0463 22.5 4.04804 21.9914C3.16995 21.544 2.45605 20.83 2.00864 19.952C1.5 18.9537 1.5 17.6469 1.5 15.0333V8.96667Z" fill="white"/>
<path d="M16.5384 6.39258L12.0481 9.89689L7.45508 6.39258V6.39353L7.46063 6.39826V11.3052L11.9963 14.8853L16.5384 11.4435V6.39258Z" fill="#EA4335"/>
<path d="M17.7183 5.53979L16.5391 6.39219V11.4431L20.2497 8.59423V6.87806C20.2497 6.87806 19.7993 4.42693 17.7183 5.53979Z" fill="#FBBC05"/>
<path d="M16.5391 11.4436V17.9948H19.3831C19.3831 17.9948 20.1924 17.9115 20.2506 16.989V8.59473L16.5391 11.4436Z" fill="#34A853"/>
<path d="M7.46084 17.9997V11.3045L7.45508 11.2998L7.46084 17.9997Z" fill="#C5221F"/>
<path d="M7.4551 6.3934L6.28234 5.54573C4.20135 4.43288 3.75 6.88306 3.75 6.88306V8.59922L7.4551 11.3004V6.3934Z" fill="#C5221F"/>
<path d="M7.45508 6.39355V11.3005L7.46084 11.3053V6.39829L7.45508 6.39355Z" fill="#C5221F"/>
<path d="M3.75 8.59961V16.9939C3.80734 17.9173 4.61754 17.9997 4.61754 17.9997H7.46158L7.4551 11.2998L3.75 8.59961Z" fill="#4285F4"/>
</svg>
