<svg width="16" height="16" viewBox="0 0 16 16" fill="none" xmlns="http://www.w3.org/2000/svg">
<path opacity="0.4" d="M8.00065 3.53378V14.2205C7.88732 14.2205 7.76732 14.2005 7.67398 14.1471L7.64732 14.1338C6.36732 13.4338 4.13398 12.7005 2.68732 12.5071L2.49398 12.4805C1.85398 12.4005 1.33398 11.8005 1.33398 11.1605V3.10712C1.33398 2.31378 1.98065 1.71378 2.77398 1.78045C4.17398 1.89378 6.29398 2.60045 7.48065 3.34045L7.64732 3.44045C7.74732 3.50045 7.87398 3.53378 8.00065 3.53378Z" fill="#B1AFAA"/>
<path d="M14.6667 3.11303V11.1597C14.6667 11.7997 14.1467 12.3997 13.5067 12.4797L13.2867 12.5064C11.8333 12.6997 9.59333 13.4397 8.31333 14.1464C8.22667 14.1997 8.12 14.2197 8 14.2197V3.53303C8.12667 3.53303 8.25333 3.49969 8.35333 3.43969L8.46667 3.36636C9.65333 2.61969 11.78 1.90636 13.18 1.78636H13.22C14.0133 1.71969 14.6667 2.31303 14.6667 3.11303Z" fill="#B1AFAA"/>
<path d="M5.16602 6.16016H3.66602C3.39268 6.16016 3.16602 5.93349 3.16602 5.66016C3.16602 5.38682 3.39268 5.16016 3.66602 5.16016H5.16602C5.43935 5.16016 5.66602 5.38682 5.66602 5.66016C5.66602 5.93349 5.43935 6.16016 5.16602 6.16016Z" fill="#B1AFAA"/>
<path d="M5.66602 8.16016H3.66602C3.39268 8.16016 3.16602 7.93349 3.16602 7.66016C3.16602 7.38682 3.39268 7.16016 3.66602 7.16016H5.66602C5.93935 7.16016 6.16602 7.38682 6.16602 7.66016C6.16602 7.93349 5.93935 8.16016 5.66602 8.16016Z" fill="#B1AFAA"/>
</svg>
