<svg width="25" height="24" viewBox="0 0 25 24" fill="none" xmlns="http://www.w3.org/2000/svg">
<path d="M3.69803 15.4643L4.3944 15.2429L3.69803 15.4643ZM2.63937 9.45481L3.34326 9.65099L2.63937 9.45481ZM7.06008 4.8893L6.62446 4.30263H6.62446L7.06008 4.8893ZM2.74737 9.11512L3.43531 9.36146L2.74737 9.11512ZM6.58054 21.172L6.16688 21.7743H6.16688L6.58054 21.172ZM6.2978 20.962L5.84085 21.5322L6.2978 20.962ZM21.302 15.4643L20.6056 15.2429L21.302 15.4643ZM18.7022 20.962L19.1592 21.5322L18.7022 20.962ZM18.4195 21.172L18.8331 21.7743L18.4195 21.172ZM17.9399 4.8893L18.3755 4.30263L17.9399 4.8893ZM22.2526 9.11512L21.5647 9.36146L22.2526 9.11512ZM22.3606 9.45481L21.6567 9.65099L22.3606 9.45481ZM12.6747 2.00327L12.6474 2.73348L12.6747 2.00327ZM12.3253 2.00327L12.3526 2.73348L12.3253 2.00327ZM10.5934 16.6822C10.1898 16.6822 9.86266 17.0093 9.86266 17.4129C9.86266 17.8164 10.1898 18.1436 10.5934 18.1436V16.6822ZM14.4066 18.1436C14.8102 18.1436 15.1373 17.8164 15.1373 17.4129C15.1373 17.0093 14.8102 16.6822 14.4066 16.6822V18.1436ZM3.69803 15.4643L4.3944 15.2429C3.90415 13.7009 3.55461 12.5983 3.37116 11.7029C3.19105 10.8239 3.18681 10.2123 3.34326 9.65099L2.63937 9.45481L1.93548 9.25863C1.69397 10.1252 1.73352 10.9911 1.93947 11.9963C2.14207 12.9851 2.52083 14.1733 3.00166 15.6857L3.69803 15.4643ZM7.06008 4.8893L6.62446 4.30263C5.36607 5.23703 4.37495 5.97171 3.64116 6.65108C2.89432 7.34252 2.36286 8.02142 2.05943 8.86878L2.74737 9.11512L3.43531 9.36146C3.63113 8.8146 3.98487 8.32446 4.634 7.72347C5.29618 7.11042 6.21179 6.42931 7.4957 5.47597L7.06008 4.8893ZM2.63937 9.45481L3.34326 9.65099C3.37047 9.55334 3.40118 9.45677 3.43531 9.36146L2.74737 9.11512L2.05943 8.86878C2.01346 8.99716 1.97212 9.1272 1.93548 9.25863L2.63937 9.45481ZM12.5 22V21.2693C10.9125 21.2693 9.78126 21.2683 8.89429 21.1702C8.02525 21.0741 7.46201 20.8909 6.9942 20.5696L6.58054 21.172L6.16688 21.7743C6.90483 22.2811 7.73009 22.5118 8.73372 22.6228C9.71943 22.7317 10.945 22.7307 12.5 22.7307V22ZM3.69803 15.4643L3.00166 15.6857C3.48245 17.198 3.85945 18.3869 4.26435 19.3089C4.67577 20.2456 5.14295 20.973 5.84085 21.5322L6.2978 20.962L6.75475 20.3918C6.30948 20.035 5.96232 19.5407 5.60241 18.7212C5.23599 17.8869 4.88468 16.785 4.3944 15.2429L3.69803 15.4643ZM6.58054 21.172L6.9942 20.5696C6.91231 20.5134 6.83244 20.4541 6.75475 20.3918L6.2978 20.962L5.84085 21.5322C5.94656 21.6169 6.05531 21.6977 6.16688 21.7743L6.58054 21.172ZM21.302 15.4643L20.6056 15.2429C20.1153 16.785 19.764 17.8869 19.3976 18.7212C19.0377 19.5407 18.6905 20.035 18.2452 20.3918L18.7022 20.962L19.1592 21.5322C19.857 20.973 20.3242 20.2456 20.7357 19.3089C21.1406 18.3869 21.5175 17.198 21.9983 15.6857L21.302 15.4643ZM12.5 22V22.7307C14.055 22.7307 15.2806 22.7317 16.2663 22.6228C17.2699 22.5118 18.0952 22.2811 18.8331 21.7743L18.4195 21.172L18.0058 20.5696C17.538 20.8909 16.9748 21.0741 16.1057 21.1702C15.2187 21.2683 14.0875 21.2693 12.5 21.2693V22ZM18.7022 20.962L18.2452 20.3918C18.1676 20.4541 18.0877 20.5134 18.0058 20.5696L18.4195 21.172L18.8331 21.7743C18.9447 21.6977 19.0534 21.6169 19.1592 21.5322L18.7022 20.962ZM17.9399 4.8893L17.5043 5.47597C18.7882 6.42931 19.7038 7.11042 20.366 7.72347C21.0151 8.32446 21.3689 8.8146 21.5647 9.36146L22.2526 9.11512L22.9406 8.86878C22.6371 8.02142 22.1057 7.34252 21.3588 6.65108C20.625 5.97171 19.6339 5.23703 18.3755 4.30263L17.9399 4.8893ZM21.302 15.4643L21.9983 15.6857C22.4792 14.1733 22.8579 12.9851 23.0605 11.9963C23.2665 10.9911 23.306 10.1252 23.0645 9.25863L22.3606 9.45481L21.6567 9.65099C21.8132 10.2123 21.8089 10.8239 21.6288 11.7029C21.4454 12.5983 21.0959 13.7009 20.6056 15.2429L21.302 15.4643ZM22.2526 9.11512L21.5647 9.36146C21.5988 9.45676 21.6295 9.55334 21.6567 9.65099L22.3606 9.45481L23.0645 9.25863C23.0279 9.1272 22.9865 8.99716 22.9406 8.86878L22.2526 9.11512ZM17.9399 4.8893L18.3755 4.30263C17.1173 3.36835 16.1271 2.63187 15.2678 2.12834C14.3937 1.6162 13.5932 1.30648 12.7021 1.27307L12.6747 2.00327L12.6474 2.73348C13.208 2.7545 13.7689 2.94392 14.5289 3.38926C15.3037 3.8432 16.2202 4.52252 17.5043 5.47597L17.9399 4.8893ZM7.06008 4.8893L7.4957 5.47597C8.77976 4.52252 9.69633 3.8432 10.4711 3.38926C11.2311 2.94392 11.792 2.7545 12.3526 2.73348L12.3253 2.00327L12.2979 1.27307C11.4068 1.30648 10.6063 1.6162 9.73223 2.12834C8.87287 2.63187 7.88271 3.36835 6.62446 4.30263L7.06008 4.8893ZM12.6747 2.00327L12.7021 1.27307C12.5674 1.26802 12.4326 1.26802 12.2979 1.27307L12.3253 2.00327L12.3526 2.73348C12.4508 2.72979 12.5492 2.72979 12.6474 2.73348L12.6747 2.00327ZM10.5934 17.4129V18.1436H14.4066V17.4129V16.6822H10.5934V17.4129Z" fill="#969696"/>
</svg>
