<svg width="25" height="24" viewBox="0 0 25 24" fill="none" xmlns="http://www.w3.org/2000/svg">
<path opacity="0.4" d="M9.7616 4.82633L3.93906 9.92134C3.43975 10.3583 3.77453 11.1343 4.46233 11.1343C4.88254 11.1343 5.22319 11.4489 5.22319 11.8371V15.0806C5.22319 17.871 5.22319 19.2662 6.16171 20.1331C7.10024 21 8.61077 21 11.6319 21H13.7681C16.7892 21 18.2997 21 19.2382 20.1331C20.1768 19.2662 20.1768 17.871 20.1768 15.0806V11.8371C20.1768 11.4489 20.5174 11.1343 20.9376 11.1343C21.6254 11.1343 21.9602 10.3583 21.4609 9.92134L15.6383 4.82633C14.2469 3.60878 13.5512 3 12.7 3C11.8488 3 11.1531 3.60878 9.7616 4.82633Z" fill="#E5B16F"/>
<path d="M9.7616 4.82633L3.93906 9.92134C3.43975 10.3583 3.77453 11.1343 4.46233 11.1343C4.88254 11.1343 5.22319 11.4489 5.22319 11.8371V15.0806C5.22319 17.871 5.22319 19.2662 6.16171 20.1331C7.10024 21 8.61077 21 11.6319 21H13.7681C16.7892 21 18.2997 21 19.2382 20.1331C20.1768 19.2662 20.1768 17.871 20.1768 15.0806V11.8371C20.1768 11.4489 20.5174 11.1343 20.9376 11.1343C21.6254 11.1343 21.9602 10.3583 21.4609 9.92134L15.6383 4.82633C14.2469 3.60878 13.5512 3 12.7 3C11.8488 3 11.1531 3.60878 9.7616 4.82633Z" stroke="#E5B16F" stroke-width="1.5" stroke-linecap="round" stroke-linejoin="round"/>
<path d="M12.7 16H12.709" stroke="#E5B16F" stroke-width="1.5" stroke-linecap="round" stroke-linejoin="round"/>
</svg>
