<svg width="54" height="54" viewBox="0 0 54 54" fill="none" xmlns="http://www.w3.org/2000/svg">
<path opacity="0.4" d="M47.0257 47.3424C43.8406 48.9301 39.6911 48.297 37.139 45.8326C35.415 44.1669 34.4506 41.8681 32.8336 40.1051C29.8044 36.8031 24.4568 35.9265 20.5313 38.0791C15.8832 40.6365 13.0445 47.3553 7.34258 47.5761C4.15743 47.7028 1.08913 45.1117 0.680018 41.9559C0.270905 38.7902 2.5697 35.5076 5.68672 34.8161C10.2742 33.7715 11.4622 31.6085 7.02122 26.9847C4.74963 24.6435 3.22645 22.0277 5.62829 18.8708C7.82204 16.0356 12.6424 14.9843 16.7618 17.5071C23.5822 21.7018 17.7978 21.2956 23.2783 13.5135C28.4442 6.10696 34.2287 11.3225 37.8502 11.731C41.2398 12.1304 44.5809 10.0069 47.9511 10.5621C53.1703 11.4248 55.2144 17.9422 51.3992 21.6274C48.9543 23.9944 45.0484 24.1307 42.3307 26.1568C40.1231 27.8066 40.4602 29.8911 42.5937 30.6569C56.1574 35.5265 52.1641 44.7575 47.0257 47.3424ZM11.3081 5.78992C8.54704 5.83527 7.41884 8.91654 10.8617 11.4594C14.6244 14.2386 17.4176 12.1698 17.3847 10.2054C17.355 8.44014 14.7201 5.73391 11.3081 5.78992Z" fill="#BEE0FF"/>
<path d="M16.4935 39.9868L25.1809 28.6796L20.2064 25.7734L12.7305 39.9868H16.4935Z" fill="#A67C52"/>
<path d="M21.9163 26.7744L14.9699 39.9872H12.7324L20.2063 25.7725L21.9163 26.7744Z" fill="#7E5D3E"/>
<path d="M41.2688 39.9868L33.7929 25.7734L28.8184 28.6796L37.5058 39.9868H41.2688Z" fill="#A67C52"/>
<path d="M39.955 39.9872H37.5085L28.8203 28.6792L33.7946 25.7725L34.3682 26.8665L31.2668 28.6792L39.955 39.9872Z" fill="#7E5D3E"/>
<path d="M35.7128 32.4246C35.7128 33.9998 34.4358 35.2769 32.8605 35.2769H21.1375C19.5622 35.2769 18.2852 33.9998 18.2852 32.4246C18.2852 30.8493 19.5622 29.5723 21.1375 29.5723H32.8604C34.4358 29.5723 35.7128 30.8493 35.7128 32.4246Z" fill="#A67C52"/>
<path d="M35.5856 33.2744C35.2209 34.4357 34.1375 35.2783 32.863 35.2783H21.1372C19.5617 35.2783 18.2871 34.0002 18.2871 32.4247C18.2867 32.0499 18.3603 31.6787 18.5037 31.3324C18.6471 30.9861 18.8574 30.6715 19.1226 30.4067C19.4472 30.0797 19.8472 29.8378 20.2874 29.7021C20.2033 29.9763 20.1604 30.2615 20.16 30.5483C20.16 32.1238 21.4381 33.4019 23.0136 33.4019H34.7359C35.0333 33.4019 35.3165 33.3559 35.5856 33.2744Z" fill="#7E5D3E"/>
<path d="M44.703 32.2776C38.1537 30.0497 32.1521 29.702 27.0009 32.2776C21.8497 29.702 15.8481 30.0497 9.29883 32.2776L14.8836 17.082L16.7471 15.127L27.0009 29.7955L37.2547 15.127L39.1182 17.082L44.703 32.2776Z" fill="#6DB02F"/>
<path d="M44.703 32.2758C38.1532 30.0489 32.1522 29.702 27.0009 32.2758C21.8496 29.702 15.8485 30.0489 9.29883 32.2758L14.882 17.0803L16.7478 15.126L17.4664 16.1527L12.8427 28.7319C17.2044 27.2484 21.3255 26.6006 25.1138 27.0962L27.0008 29.7939L28.371 27.8361C29.1163 28.0818 29.8428 28.3811 30.5448 28.7319C34.2552 26.8767 38.4045 26.5403 42.8866 27.3299L44.703 32.2758Z" fill="#8ACC34"/>
<path d="M27.0009 15.1259V29.7954C22.8401 26.5479 16.9243 26.5479 11.6309 29.7954L16.7473 15.1259C20.1096 13.6442 24.1553 13.6442 27.0009 15.1259Z" fill="white"/>
<path d="M26.9998 25.3082V29.7939C22.8398 26.5473 16.9237 26.5473 11.6309 29.7939L16.7467 15.1259C17.429 14.8253 18.1362 14.5849 18.8603 14.4072L15.6704 23.5521C15.2562 24.731 16.3997 25.864 17.5716 25.4321C20.8253 24.2353 24.1356 24.1929 26.9998 25.3082Z" fill="#BAE3F5"/>
<path d="M27 15.1259V29.7954C31.1608 26.5479 37.0766 26.5479 42.3701 29.7954L37.2537 15.1259C33.8913 13.6442 29.8457 13.6442 27 15.1259Z" fill="white"/>
<path d="M42.3689 29.7944C37.076 26.5479 31.1599 26.5479 27 29.7944V15.1264C28.009 14.5989 29.1632 14.2625 30.3882 14.1104V22.5118C30.3882 24.1155 31.9814 25.2379 33.486 24.6891C35.635 23.9067 38.0213 23.7651 40.4394 24.2642L42.3689 29.7944Z" fill="#BAE3F5"/>
<path d="M44.9549 32.5252C45.0015 32.4774 45.0336 32.4173 45.0476 32.352C45.0615 32.2866 45.0567 32.2187 45.0337 32.156L39.4489 16.9602C39.4323 16.9147 39.4064 16.873 39.3729 16.838L37.5141 14.888C37.4586 14.8406 37.4344 14.8198 37.396 14.8028C33.991 13.302 29.9348 13.2827 26.9993 14.7347C24.0642 13.2823 20.0087 13.3022 16.6029 14.8028C16.5649 14.8195 16.5332 14.8455 16.5037 14.8735C16.3991 14.9727 15.5539 15.8671 14.6259 16.838C14.5923 16.873 14.5664 16.9147 14.5498 16.9602L8.96505 32.156C8.94204 32.2187 8.93722 32.2866 8.95116 32.352C8.9651 32.4173 8.99723 32.4774 9.04384 32.5252C9.09056 32.5731 9.14987 32.6067 9.21491 32.6223C9.27995 32.6378 9.34807 32.6347 9.4114 32.6132C12.1714 31.6742 14.7271 31.1108 17.1045 30.911L12.4169 39.823C12.3886 39.877 12.3746 39.9373 12.3763 39.9982C12.3781 40.0592 12.3955 40.1186 12.427 40.1709C12.4585 40.223 12.503 40.2662 12.5561 40.2961C12.6093 40.3261 12.6692 40.3418 12.7302 40.3418H16.4933C16.5476 40.3418 16.6011 40.3293 16.6498 40.3053C16.6984 40.2814 16.741 40.2465 16.7741 40.2035L20.3624 35.5331C20.6111 35.5952 20.8699 35.6318 21.1376 35.6318H32.8608C33.1288 35.6318 33.3877 35.5952 33.6366 35.533L37.2251 40.2037C37.2582 40.2467 37.3007 40.2815 37.3494 40.3055C37.3981 40.3294 37.4516 40.3419 37.5058 40.3419H41.269C41.33 40.3419 41.3899 40.3262 41.443 40.2962C41.4961 40.2663 41.5406 40.2231 41.5722 40.171C41.6036 40.1187 41.6211 40.0593 41.6228 39.9984C41.6246 39.9374 41.6106 39.8771 41.5822 39.8231L36.8946 30.911C39.2717 31.1109 41.8273 31.6743 44.5873 32.6133C44.6507 32.6348 44.7188 32.6379 44.7838 32.6223C44.8489 32.6068 44.9082 32.5731 44.9549 32.5252ZM36.97 15.3898L41.7208 29.0114C36.7469 26.2988 31.3741 26.3283 27.3534 29.0975V15.3447C30.0644 14.0219 33.7957 14.038 36.97 15.3898ZM24.7495 14.6762C23.6233 16.8853 24.0675 21.2989 24.0886 21.4986C24.0935 21.5448 24.1074 21.5896 24.1295 21.6304C24.1517 21.6713 24.1817 21.7074 24.2178 21.7366C24.2539 21.7659 24.2954 21.7878 24.3399 21.801C24.3845 21.8142 24.4312 21.8185 24.4774 21.8137C24.5236 21.8089 24.5684 21.795 24.6093 21.7728C24.6501 21.7507 24.6862 21.7207 24.7155 21.6846C24.7447 21.6485 24.7666 21.607 24.7798 21.5624C24.7931 21.5179 24.7974 21.4712 24.7925 21.4249C24.7879 21.3772 24.3267 16.7972 25.4486 14.8704C25.8641 15.0032 26.2656 15.1594 26.6454 15.3447V29.0974C24.6139 27.6981 22.2376 26.9988 19.7412 26.9988C17.2975 26.9988 14.7386 27.6696 12.278 29.0115L17.0289 15.3899C19.5144 14.3315 22.3388 14.0957 24.7495 14.6762ZM16.3187 39.6337H13.3166L17.9359 30.8513C18.078 30.8445 18.2169 30.8444 18.3577 30.8402C18.0885 31.3082 17.9313 31.8479 17.9313 32.4254C17.9313 33.6642 18.6386 34.7389 19.6695 35.2726L16.3187 39.6337ZM21.1376 34.9237C19.7602 34.9237 18.6393 33.803 18.6393 32.4255C18.6393 31.8179 18.8606 31.2634 19.2229 30.8303C22.0145 30.8608 24.543 31.4457 26.8411 32.5948C26.8902 32.6194 26.9445 32.6322 26.9994 32.6322C27.0544 32.6322 27.1086 32.6194 27.1578 32.5948C29.4561 31.4456 31.9846 30.8606 34.7761 30.8301C35.138 31.2635 35.3592 31.818 35.3592 32.4255C35.3592 33.803 34.2383 34.9237 32.8609 34.9237H21.1376ZM40.6826 39.6337H37.6805L34.3294 35.2725C35.3601 34.7387 36.0672 33.6641 36.0672 32.4255C36.0672 31.8479 35.9098 31.3082 35.6406 30.8402C35.7816 30.8444 35.9208 30.8445 36.0631 30.8514L40.6826 39.6337ZM26.9994 31.8832C21.5848 29.2452 15.5933 29.8742 9.88263 31.7114L15.1891 17.2733L15.8718 16.5571L11.295 29.6796C11.2709 29.7485 11.2688 29.8232 11.2889 29.8934C11.309 29.9636 11.3503 30.0259 11.4071 30.0717C11.464 30.1175 11.5336 30.1446 11.6065 30.1493C11.6794 30.154 11.7519 30.136 11.8142 30.0979C16.9938 26.921 22.7286 26.912 26.7815 30.0751C26.8326 30.1151 26.9282 30.1501 26.9993 30.1501C27.07 30.1501 27.1654 30.1155 27.2171 30.0752C31.2702 26.9117 37.0054 26.9206 42.1843 30.0979C42.2466 30.1361 42.3191 30.1541 42.392 30.1495C42.465 30.1448 42.5346 30.1177 42.5915 30.0719C42.6484 30.0261 42.6897 29.9637 42.7098 29.8935C42.7298 29.8233 42.7277 29.7485 42.7036 29.6796L38.1267 16.5571L38.8094 17.2733L44.1159 31.7114C37.3254 29.5264 31.7177 29.584 26.9994 31.8832Z" fill="black"/>
</svg>
