<svg width="55" height="54" viewBox="0 0 55 54" fill="none" xmlns="http://www.w3.org/2000/svg">
<path d="M34 0.84375H20.5C18.17 0.84375 16.2812 2.73255 16.2812 5.0625V13.5C16.2812 15.83 18.17 17.7188 20.5 17.7188H34C36.33 17.7188 38.2188 15.83 38.2188 13.5V5.0625C38.2188 2.73255 36.33 0.84375 34 0.84375Z" fill="#68AAE8"/>
<path d="M21.3438 2.53125H34.8438C35.7389 2.53125 36.5973 2.88683 37.2302 3.51976C37.8632 4.1527 38.2188 5.01114 38.2188 5.90625V13.5C38.2188 14.6189 37.7743 15.6919 36.9831 16.4831C36.1919 17.2743 35.1189 17.7188 34 17.7188H21.3438C20.4486 17.7188 19.5902 17.3632 18.9573 16.7302C18.3243 16.0973 17.9688 15.2389 17.9688 14.3438V5.90625C17.9688 5.01114 18.3243 4.1527 18.9573 3.51976C19.5902 2.88683 20.4486 2.53125 21.3438 2.53125Z" fill="#72BBFF"/>
<path d="M7 15.7988L5.3125 19.686L27.25 31.7896V28.3648C27.25 27.2085 26.9106 26.0777 26.2739 25.1126C25.6372 24.1474 24.7312 23.3903 23.6683 22.9353L7 15.7988Z" fill="#F7FAFC"/>
<path d="M47.5 15.7988L30.8317 22.9353C29.7688 23.3903 28.8628 24.1474 28.2261 25.1126C27.5894 26.0777 27.25 27.2085 27.25 28.3648V31.7896L49.1875 19.686L47.5 15.7988Z" fill="#E6F0F6"/>
<path d="M4.46875 47.25V53.1562L53.4062 23.625V20.25L4.46875 47.25Z" fill="#EA977A"/>
<path d="M50.0312 47.25V53.1562L1.09375 23.625V20.25L50.0312 47.25Z" fill="#EFA889"/>
<path d="M27.25 30.3752L4.46875 19.2217L3.625 21.6466L27.25 34.6809V30.3752Z" fill="#93E573"/>
<path d="M27.25 34.6809L50.875 21.6466L50.0312 19.2217L27.25 30.3752V34.6809Z" fill="#7DD555"/>
<path d="M27.25 40.5C29.114 40.5 30.625 38.989 30.625 37.125C30.625 35.261 29.114 33.75 27.25 33.75C25.386 33.75 23.875 35.261 23.875 37.125C23.875 38.989 25.386 40.5 27.25 40.5Z" fill="#F2B9A1"/>
<path d="M20.5 18.3516H34C35.2862 18.35 36.5193 17.8384 37.4288 16.9288C38.3384 16.0193 38.85 14.7862 38.8516 13.5V5.0625C38.85 3.77627 38.3384 2.54316 37.4288 1.63365C36.5193 0.724148 35.2862 0.2125 34 0.210938H20.5C19.2138 0.2125 17.9807 0.724148 17.0712 1.63365C16.1616 2.54316 15.65 3.77627 15.6484 5.0625V13.5C15.65 14.7862 16.1616 16.0193 17.0712 16.9288C17.9807 17.8384 19.2138 18.35 20.5 18.3516ZM16.9141 5.0625C16.9152 4.11179 17.2933 3.20034 17.9656 2.52809C18.6378 1.85584 19.5493 1.47768 20.5 1.47656H34C34.9507 1.47768 35.8622 1.85584 36.5344 2.52809C37.2067 3.20034 37.5848 4.11179 37.5859 5.0625V13.5C37.5848 14.4507 37.2067 15.3622 36.5344 16.0344C35.8622 16.7067 34.9507 17.0848 34 17.0859H20.5C19.5493 17.0848 18.6378 16.7067 17.9656 16.0344C17.2933 15.3622 16.9152 14.4507 16.9141 13.5V5.0625Z" fill="black"/>
<path d="M53.1008 19.6957L51.226 20.7301L50.6286 19.0131C50.5992 18.9285 50.5522 18.8512 50.4906 18.7862C50.4291 18.7212 50.3545 18.67 50.2718 18.6359C50.189 18.6019 50.0999 18.5858 50.0105 18.5887C49.921 18.5916 49.8332 18.6134 49.7528 18.6528L49.4853 18.7836L48.0805 15.5478C48.0137 15.3945 47.8891 15.2738 47.7337 15.212C47.5784 15.1502 47.4049 15.1523 47.2511 15.2179L30.5828 22.3535C29.1183 22.9804 27.9331 24.1205 27.25 25.5597C26.5669 24.1205 25.3817 22.9804 23.9172 22.3535L7.25313 15.2179C7.09932 15.1523 6.92583 15.1502 6.77047 15.212C6.61512 15.2738 6.49048 15.3945 6.42372 15.5478L5.01466 18.7836L4.74719 18.6528C4.6668 18.6134 4.57898 18.5916 4.48952 18.5887C4.40007 18.5858 4.31102 18.6019 4.22825 18.6359C4.14548 18.67 4.07087 18.7212 4.00935 18.7862C3.94783 18.8512 3.90081 18.9285 3.87137 19.0131L3.274 20.7301L1.39919 19.6957C1.30283 19.6426 1.19429 19.6155 1.08427 19.6171C0.974261 19.6188 0.866579 19.6491 0.771853 19.7051C0.677126 19.761 0.598628 19.8407 0.544105 19.9363C0.489581 20.0318 0.460916 20.14 0.460938 20.25V23.625C0.460996 23.7339 0.489134 23.841 0.542636 23.9359C0.596138 24.0308 0.673197 24.1103 0.766375 24.1667L21.8922 36.9149L4.16331 46.6965C4.06426 46.7511 3.98165 46.8312 3.92408 46.9286C3.8665 47.0259 3.83607 47.1369 3.83594 47.25V53.1562C3.83594 53.2685 3.86577 53.3788 3.92237 53.4757C3.97897 53.5727 4.06032 53.6529 4.15809 53.708C4.25585 53.7632 4.36652 53.7915 4.47878 53.7898C4.59104 53.7882 4.70084 53.7568 4.79697 53.6988L25.9675 40.9219C26.7996 41.202 27.7004 41.202 28.5325 40.9219L49.703 53.6962C49.799 53.7541 49.9086 53.7856 50.0206 53.7873C50.1326 53.789 50.2431 53.761 50.3408 53.7061C50.4385 53.6512 50.5199 53.5714 50.5767 53.4748C50.6335 53.3782 50.6636 53.2683 50.6641 53.1562V47.25C50.6641 47.1369 50.6338 47.0258 50.5762 46.9284C50.5186 46.8311 50.4359 46.7509 50.3367 46.6965L32.6078 36.9149L53.7336 24.1667C53.8268 24.1103 53.9039 24.0308 53.9574 23.9359C54.0109 23.841 54.039 23.7339 54.0391 23.625V20.25C54.0391 20.14 54.0104 20.0318 53.9559 19.9363C53.9014 19.8407 53.8229 19.761 53.7281 19.7051C53.6334 19.6491 53.5257 19.6188 53.4157 19.6171C53.3057 19.6155 53.1972 19.6426 53.1008 19.6957ZM27.8828 28.3652C27.8827 27.3328 28.1857 26.323 28.7542 25.4612C29.3226 24.5994 30.1315 23.9234 31.0806 23.517L47.1701 16.6286L48.3438 19.3413L27.8828 29.3625V28.3652ZM7.32991 16.6286L23.4194 23.517C24.3685 23.9234 25.1774 24.5994 25.7458 25.4612C26.3143 26.323 26.6173 27.3328 26.6172 28.3652V29.3625L6.15625 19.3413L7.32991 16.6286ZM4.83156 20.104L26.9716 30.9428C27.0582 30.9853 27.1535 31.0074 27.25 31.0074C27.3465 31.0074 27.4418 30.9853 27.5284 30.9428L49.6684 20.104L50.1021 21.3502L28.4456 33.2994C27.6671 33.0564 26.8329 33.0564 26.0544 33.2994L4.39787 21.3469L4.83156 20.104ZM1.72656 23.2681V21.3224L24.7289 34.0124C24.07 34.5467 23.5974 35.276 23.3789 36.0956L23.1747 36.2087L1.72656 23.2681ZM5.10156 52.04V47.6272L23.27 37.6034C23.3924 38.6245 23.9027 39.5594 24.6951 40.2148L5.10156 52.04ZM27.25 39.8672C26.7076 39.8672 26.1775 39.7064 25.7265 39.405C25.2756 39.1037 24.9241 38.6755 24.7165 38.1744C24.509 37.6733 24.4547 37.122 24.5605 36.59C24.6663 36.0581 24.9275 35.5695 25.311 35.186C25.6945 34.8025 26.1831 34.5413 26.715 34.4355C27.247 34.3297 27.7983 34.384 28.2994 34.5915C28.8005 34.7991 29.2287 35.1506 29.53 35.6015C29.8314 36.0525 29.9922 36.5826 29.9922 37.125C29.9913 37.852 29.7021 38.549 29.188 39.063C28.674 39.5771 27.977 39.8663 27.25 39.8672ZM49.3984 47.6229V52.0357L29.8049 40.2106C30.5973 39.5552 31.1076 38.6203 31.23 37.5992L49.3984 47.6229ZM52.7734 23.2681L31.3278 36.2087L31.1237 36.0956C30.9051 35.276 30.4325 34.5467 29.7737 34.0124L52.7734 21.3224V23.2681ZM34.8438 14.9766C35.0116 14.9766 35.1725 14.9099 35.2912 14.7912C35.4099 14.6725 35.4766 14.5116 35.4766 14.3437V8.4375C35.4766 8.26967 35.4099 8.10871 35.2912 7.99003C35.1725 7.87136 35.0116 7.80469 34.8438 7.80469C34.6759 7.80469 34.515 7.87136 34.3963 7.99003C34.2776 8.10871 34.2109 8.26967 34.2109 8.4375V14.3437C34.2109 14.5116 34.2776 14.6725 34.3963 14.7912C34.515 14.9099 34.6759 14.9766 34.8438 14.9766ZM21.3438 7.80469C21.1759 7.80469 21.015 7.87136 20.8963 7.99003C20.7776 8.10871 20.7109 8.26967 20.7109 8.4375V14.3437C20.7109 14.5116 20.7776 14.6725 20.8963 14.7912C21.015 14.9099 21.1759 14.9766 21.3438 14.9766C21.5116 14.9766 21.6725 14.9099 21.7912 14.7912C21.9099 14.6725 21.9766 14.5116 21.9766 14.3437V8.4375C21.9766 8.26967 21.9099 8.10871 21.7912 7.99003C21.6725 7.87136 21.5116 7.80469 21.3438 7.80469Z" fill="black"/>
<path d="M31.8906 4.42969C32.2401 4.42969 32.5234 4.14637 32.5234 3.79688C32.5234 3.44738 32.2401 3.16406 31.8906 3.16406C31.5411 3.16406 31.2578 3.44738 31.2578 3.79688C31.2578 4.14637 31.5411 4.42969 31.8906 4.42969Z" fill="black"/>
<path d="M29.3594 4.42969C29.7089 4.42969 29.9922 4.14637 29.9922 3.79688C29.9922 3.44738 29.7089 3.16406 29.3594 3.16406C29.0099 3.16406 28.7266 3.44738 28.7266 3.79688C28.7266 4.14637 29.0099 4.42969 29.3594 4.42969Z" fill="black"/>
<path d="M23.875 14.9766C24.9375 14.9752 25.9562 14.5525 26.7075 13.8012C27.4588 13.0499 27.8815 12.0313 27.8828 10.9688V9.91406H30.625C31.0839 9.91406 31.5325 9.77798 31.9141 9.52302C32.2957 9.26806 32.5931 8.90568 32.7687 8.4817C32.9443 8.05771 32.9903 7.59118 32.9007 7.14108C32.8112 6.69098 32.5902 6.27754 32.2657 5.95304C31.9412 5.62854 31.5278 5.40755 31.0777 5.31802C30.6276 5.22849 30.161 5.27444 29.7371 5.45006C29.3131 5.62568 28.9507 5.92308 28.6957 6.30465C28.4408 6.68623 28.3047 7.13484 28.3047 7.59375C28.3037 7.96047 28.3905 8.3221 28.5578 8.64844H27.25C27.0822 8.64844 26.9212 8.71511 26.8025 8.83378C26.6839 8.95246 26.6172 9.11342 26.6172 9.28125V10.9688C26.6163 11.6957 26.3271 12.3927 25.813 12.9068C25.299 13.4208 24.602 13.71 23.875 13.7109C23.7072 13.7109 23.5462 13.7776 23.4275 13.8963C23.3089 14.015 23.2422 14.1759 23.2422 14.3438C23.2422 14.5116 23.3089 14.6725 23.4275 14.7912C23.5462 14.9099 23.7072 14.9766 23.875 14.9766ZM30.625 6.53906C30.8336 6.53906 31.0375 6.60092 31.211 6.71681C31.3844 6.8327 31.5196 6.99742 31.5994 7.19014C31.6792 7.38286 31.7001 7.59492 31.6594 7.79951C31.6187 8.0041 31.5183 8.19203 31.3708 8.33953C31.2233 8.48703 31.0353 8.58748 30.8308 8.62817C30.6262 8.66887 30.4141 8.64798 30.2214 8.56815C30.0287 8.48833 29.8639 8.35315 29.7481 8.1797C29.6322 8.00626 29.5703 7.80235 29.5703 7.59375C29.5708 7.31417 29.682 7.04616 29.8797 6.84847C30.0774 6.65077 30.3454 6.53951 30.625 6.53906ZM18.8125 6.53906H22.1875C22.3553 6.53906 22.5163 6.47239 22.635 6.35372C22.7536 6.23504 22.8203 6.07408 22.8203 5.90625C22.8203 5.73842 22.7536 5.57746 22.635 5.45878C22.5163 5.34011 22.3553 5.27344 22.1875 5.27344H21.7656C21.5978 5.27344 21.4368 5.20677 21.3182 5.08809C21.1995 4.96942 21.1328 4.80846 21.1328 4.64063C21.1328 4.47279 21.1995 4.31183 21.3182 4.19316C21.4368 4.07448 21.5978 4.00781 21.7656 4.00781H22.1875C22.3553 4.00781 22.5163 3.94114 22.635 3.82247C22.7536 3.70379 22.8203 3.54283 22.8203 3.375C22.8203 3.20717 22.7536 3.04621 22.635 2.92753C22.5163 2.80886 22.3553 2.74219 22.1875 2.74219H21.7656C21.4619 2.74204 21.1625 2.81482 20.8927 2.9544C20.6229 3.09398 20.3906 3.29629 20.2152 3.54432C20.0399 3.79234 19.9266 4.07885 19.885 4.37974C19.8434 4.68063 19.8746 4.98712 19.976 5.27344H18.8125C18.6447 5.27344 18.4837 5.34011 18.365 5.45878C18.2464 5.57746 18.1797 5.73842 18.1797 5.90625C18.1797 6.07408 18.2464 6.23504 18.365 6.35372C18.4837 6.47239 18.6447 6.53906 18.8125 6.53906Z" fill="black"/>
</svg>
