<svg width="56" height="56" viewBox="0 0 56 56" fill="none" xmlns="http://www.w3.org/2000/svg">
<rect width="56" height="56" rx="28" fill="url(#paint0_linear_24802_3923)"/>
<path d="M33.625 41.75C41.125 41.75 44.875 46.125 44.875 46.125L43.625 40.5L46.125 38.625C46.125 38.625 42.375 34.875 33.625 34.875V41.75Z" fill="#C7312E"/>
<path d="M28 9.875L23.625 14.875H26.125V28.625H29.875V14.875H32.375L28 9.875ZM39.25 13.625L34.875 18.625H37.375V38.625H41.125V18.625H43.625L39.25 13.625ZM16.75 13.625L12.375 18.625H14.875V38.625H18.625V18.625H21.125L16.75 13.625Z" fill="#FFD33A"/>
<path d="M41.125 39.8748L33.625 41.7498V37.749C38.625 38.4459 41.125 39.8748 41.125 39.8748Z" fill="#962523"/>
<path d="M22.375 41.75C14.875 41.75 11.125 46.125 11.125 46.125L12.375 40.5L9.875 38.625C9.875 38.625 13.625 34.875 22.375 34.875V41.75Z" fill="#C7312E"/>
<path d="M41.125 39.875C41.125 39.875 36.75 37.375 28 37.375C19.25 37.375 14.875 39.875 14.875 39.875V32.375C14.875 32.375 19.25 29.875 28 29.875C36.75 29.875 41.125 32.375 41.125 32.375V39.875Z" fill="#EB423F"/>
<path d="M22.375 37.749V41.7498L14.875 39.8748C14.875 39.8748 17.375 38.4459 22.375 37.749Z" fill="#962523"/>
<path d="M36.125 36.125C34.487 38.9914 28 42.375 28 42.375C28 42.375 21.5129 38.9914 19.875 36.125C18.2371 33.2586 17.375 23 17.375 23L28 18.625L38.625 23C38.625 23 37.763 33.2586 36.125 36.125Z" fill="#75452E"/>
<path d="M34.25 34.875C32.9569 37.138 28 39.875 28 39.875C28 39.875 23.0431 37.138 21.75 34.875C20.4569 32.612 19.875 24.25 19.875 24.25L28 21.125L36.125 24.25C36.125 24.25 35.5431 32.612 34.25 34.875Z" fill="#AD6643"/>
<path d="M31.75 34.25L28 33L24.25 34.25L24.875 31.125L23 28.625L26.125 28L28 25.5L29.875 28L33 28.625L31.125 31.125L31.75 34.25Z" fill="#FFD33A"/>
<path d="M46.567 38.183C46.502 38.118 44.9967 36.6396 41.75 35.5136V19.2499H43.625C43.7451 19.2499 43.8626 19.2153 43.9635 19.1502C44.0644 19.0852 44.1445 18.9925 44.1941 18.8832C44.2437 18.7738 44.2608 18.6525 44.2432 18.5338C44.2257 18.415 44.1744 18.3038 44.0954 18.2134L39.7204 13.2134C39.6617 13.1463 39.5894 13.0926 39.5083 13.0557C39.4272 13.0189 39.3391 12.9998 39.25 12.9998C39.1609 12.9998 39.0729 13.0188 38.9917 13.0557C38.9106 13.0925 38.8383 13.1463 38.7797 13.2133L34.4047 18.2133C34.3256 18.3037 34.2743 18.4149 34.2568 18.5337C34.2393 18.6525 34.2563 18.7738 34.3059 18.8831C34.3555 18.9924 34.4356 19.0851 34.5365 19.1502C34.6374 19.2152 34.7549 19.2498 34.875 19.2498H36.75V21.5519L30.5 18.9783V15.4999H32.375C32.495 15.4999 32.6125 15.4653 32.7134 15.4002C32.8144 15.3352 32.8944 15.2425 32.944 15.1332C32.9936 15.0238 33.0107 14.9025 32.9932 14.7838C32.9757 14.665 32.9243 14.5538 32.8453 14.4634L28.4703 9.46341C28.4116 9.39639 28.3393 9.34267 28.2582 9.30586C28.1771 9.26905 28.0891 9.25001 28 9.25C27.911 9.24999 27.8229 9.26902 27.7418 9.30582C27.6607 9.34261 27.5884 9.39632 27.5297 9.46334L23.1547 14.4633C23.0757 14.5537 23.0243 14.6649 23.0068 14.7837C22.9893 14.9025 23.0063 15.0238 23.0559 15.1331C23.1056 15.2425 23.1856 15.3352 23.2865 15.4003C23.3875 15.4653 23.505 15.4999 23.6251 15.4999H25.5001V18.9784L19.2501 21.5519V19.2499H21.1251C21.2451 19.2499 21.3626 19.2153 21.4635 19.1502C21.5644 19.0852 21.6445 18.9925 21.6941 18.8832C21.7437 18.7738 21.7608 18.6525 21.7433 18.5338C21.7257 18.415 21.6744 18.3038 21.5954 18.2134L17.2204 13.2134C17.1617 13.1464 17.0894 13.0926 17.0083 13.0558C16.9272 13.019 16.8391 13 16.75 13C16.661 12.9999 16.5729 13.019 16.4918 13.0558C16.4107 13.0926 16.3383 13.1463 16.2797 13.2133L11.9047 18.2133C11.8256 18.3037 11.7742 18.4149 11.7567 18.5337C11.7392 18.6525 11.7563 18.7738 11.8059 18.8832C11.8555 18.9925 11.9356 19.0853 12.0365 19.1503C12.1374 19.2153 12.255 19.2499 12.3751 19.2499H14.2501V35.5136C11.0035 36.6395 9.49818 38.118 9.4331 38.183C9.36977 38.2463 9.32079 38.3225 9.28947 38.4064C9.25815 38.4903 9.24522 38.5799 9.25157 38.6692C9.25792 38.7586 9.28339 38.8455 9.32627 38.9241C9.36914 39.0028 9.42841 39.0713 9.50006 39.125L11.6775 40.758L10.515 45.9894C10.4849 46.1254 10.5011 46.2676 10.561 46.3934C10.6209 46.5191 10.7212 46.6213 10.8458 46.6836C10.9704 46.7459 11.1123 46.7648 11.2488 46.7373C11.3854 46.7098 11.5089 46.6374 11.5997 46.5317C11.6352 46.4901 15.245 42.3749 22.3751 42.3749C22.5408 42.3749 22.6998 42.3091 22.817 42.1918C22.9342 42.0746 23.0001 41.9157 23.0001 41.7499V40.0144C25.2206 41.6215 27.5495 42.8447 27.711 42.929C27.8002 42.9755 27.8994 42.9998 28.0001 42.9998C28.1007 42.9998 28.1999 42.9755 28.2891 42.929C28.4506 42.8447 30.7796 41.6214 33 40.0144V41.7499C33 41.9157 33.0659 42.0746 33.1831 42.1918C33.3003 42.3091 33.4593 42.3749 33.625 42.3749C37.3326 42.3749 40.0618 43.5026 41.6985 44.4487C43.4785 45.4776 44.3924 46.5223 44.4005 46.5316C44.4912 46.6375 44.6147 46.71 44.7513 46.7376C44.888 46.7652 45.0299 46.7463 45.1546 46.6839C45.2792 46.6215 45.3795 46.5193 45.4394 46.3935C45.4993 46.2676 45.5154 46.1254 45.4852 45.9893L44.3227 40.7579L46.5 39.1249C46.5717 39.0712 46.6309 39.0027 46.6737 38.924C46.7166 38.8454 46.7421 38.7585 46.7484 38.6692C46.7548 38.5799 46.7418 38.4903 46.7105 38.4064C46.6792 38.3225 46.6303 38.2463 46.567 38.183ZM38.0601 31.8409C39.27 32.2087 40.0875 32.5622 40.5 32.7586V38.8872C39.6054 38.5073 38.0684 37.9534 35.8836 37.5037C36.1983 37.1462 36.4659 36.788 36.6677 36.4349C37.221 35.4667 37.6851 33.7397 38.0601 31.8409ZM37.375 17.9999H36.2524L39.25 14.574L42.2477 17.9999H41.125C40.9593 17.9999 40.8003 18.0657 40.6831 18.183C40.5659 18.3002 40.5 18.4591 40.5 18.6249V31.3883C39.9801 31.1676 39.243 30.8882 38.2886 30.6041C38.9071 27.0339 39.2264 23.3078 39.2479 23.0522C39.259 22.9199 39.2277 22.7875 39.1585 22.6742C39.0893 22.5609 38.9858 22.4726 38.863 22.422L38 22.0666V18.6249C38 18.4591 37.9342 18.3002 37.817 18.183C37.6998 18.0657 37.5408 17.9999 37.375 17.9999ZM26.1251 14.2499H25.0024L28.0001 10.824L30.9977 14.2499H29.8751C29.7093 14.2499 29.5503 14.3157 29.4331 14.433C29.3159 14.5502 29.2501 14.7091 29.2501 14.8749V18.4637L28.238 18.0469C28.0856 17.9842 27.9145 17.9842 27.7621 18.0469L26.7501 18.4637V14.8749C26.7501 14.7091 26.6842 14.5502 26.567 14.433C26.4498 14.3157 26.2908 14.2499 26.1251 14.2499ZM19.3324 36.435C19.5341 36.788 19.8019 37.1462 20.1165 37.5037C17.9317 37.9534 16.3947 38.5073 15.5001 38.8873V32.7587C15.9131 32.5621 16.7304 32.2087 17.94 31.841C18.3151 33.7397 18.7791 35.4667 19.3324 36.435ZM13.7524 17.9999L16.7501 14.574L19.7477 17.9999H18.6251C18.4593 17.9999 18.3003 18.0657 18.1831 18.183C18.0659 18.3002 18.0001 18.4591 18.0001 18.6249V22.0666L17.1371 22.4219C17.0143 22.4725 16.9108 22.5608 16.8416 22.6741C16.7724 22.7875 16.7411 22.9199 16.7522 23.0522C16.7737 23.3076 17.093 27.0337 17.7115 30.604C16.7571 30.8881 16.0201 31.1676 15.5001 31.3882V18.6249C15.5001 18.4591 15.4342 18.3002 15.317 18.183C15.1998 18.0657 15.0408 17.9999 14.8751 17.9999H13.7524ZM12.1549 44.3719L12.9852 40.6355C13.0113 40.5181 13.003 40.3957 12.9613 40.283C12.9195 40.1703 12.8462 40.0719 12.7501 39.9998L10.8876 38.603C11.4973 38.1558 12.6046 37.4591 14.2501 36.8424V39.8749C14.2502 39.9842 14.2789 40.0915 14.3334 40.1862C14.3879 40.2808 14.4663 40.3596 14.5608 40.4145C14.6123 40.4446 14.6673 40.4661 14.7237 40.4802L14.7235 40.4812L18.7275 41.4823C16.5244 41.9249 14.8094 42.7054 13.6227 43.3976C13.1147 43.6932 12.6246 44.0185 12.1549 44.3719ZM21.7501 40.9494L16.8167 39.7161C17.8184 39.3514 19.2785 38.9123 21.1879 38.5708C21.3695 38.733 21.5575 38.8935 21.7501 39.0522V40.9494ZM28 41.6655C26.7422 40.9801 21.7574 38.1592 20.4177 35.8148C19.0572 33.4337 18.2279 25.4049 18.0392 23.4023L28.0001 19.3008L37.961 23.4023C37.7723 25.4054 36.9434 33.433 35.5825 35.8148C34.2438 38.1573 29.2576 40.9798 28 41.6655ZM34.8122 38.5709C36.7217 38.9123 38.1818 39.3515 39.1834 39.7161L34.25 40.9494V39.0522C34.4406 38.8955 34.628 38.735 34.8122 38.5709ZM43.25 39.9999C43.1539 40.072 43.0806 40.1704 43.0389 40.2831C42.9972 40.3958 42.9888 40.5182 43.0149 40.6355L43.8452 44.3719C43.3755 44.0186 42.8854 43.6932 42.3774 43.3976C41.1908 42.7054 39.4757 41.9248 37.2726 41.4823L41.2766 40.4812L41.2765 40.4808C41.3333 40.4667 41.388 40.4448 41.4387 40.4155C41.5334 40.3606 41.612 40.2817 41.6666 40.1869C41.7212 40.092 41.75 39.9845 41.75 39.875V36.8425C43.396 37.4594 44.5033 38.1562 45.1125 38.6031L43.25 39.9999Z" fill="#181818"/>
<path d="M36.7484 24.2934C36.7577 24.16 36.7239 24.0271 36.6521 23.9143C36.5803 23.8015 36.4741 23.7147 36.3493 23.6667L28.2243 20.5417C28.0799 20.4861 27.92 20.4861 27.7756 20.5417L19.6506 23.6667C19.5258 23.7147 19.4196 23.8015 19.3478 23.9143C19.276 24.0271 19.2422 24.16 19.2515 24.2934C19.2756 24.6406 19.8588 32.8251 21.2074 35.185C22.5717 37.5728 27.4892 40.3068 27.6979 40.4221C27.7904 40.4732 27.8943 40.5 28 40.5C28.1057 40.5 28.2097 40.4732 28.3021 40.4221C28.5108 40.3068 33.4282 37.5728 34.7927 35.185C36.1411 32.8251 36.7242 24.6406 36.7484 24.2934ZM27.9999 39.1572C26.4793 38.2819 23.2149 36.179 22.2926 34.5649C21.3514 32.9178 20.736 27.2448 20.5328 24.6666L27.9999 21.7946L35.4672 24.6666C35.2641 27.2446 34.6489 32.9171 33.7074 34.5649C32.7859 36.1773 29.5206 38.2814 27.9999 39.1572Z" fill="#181818"/>
<path d="M33.1225 28.0122L30.2317 27.434L28.5 25.1251C28.4418 25.0474 28.3663 24.9844 28.2795 24.941C28.1927 24.8976 28.097 24.875 28 24.875C27.9029 24.875 27.8072 24.8976 27.7204 24.941C27.6337 24.9844 27.5582 25.0474 27.5 25.1251L25.7682 27.434L22.8774 28.0122C22.7738 28.0329 22.6772 28.0795 22.5966 28.1477C22.5159 28.2158 22.4539 28.3033 22.4162 28.4019C22.3785 28.5006 22.3664 28.6072 22.381 28.7118C22.3957 28.8163 22.4366 28.9155 22.5 29L24.2073 31.2765L23.6371 34.1274C23.6156 34.2347 23.6227 34.3458 23.6577 34.4496C23.6926 34.5533 23.7542 34.6461 23.8363 34.7185C23.9183 34.791 24.018 34.8406 24.1253 34.8624C24.2326 34.8843 24.3437 34.8775 24.4475 34.8429L28 33.6589L31.5523 34.843C31.6562 34.8777 31.7673 34.8844 31.8746 34.8626C31.9819 34.8407 32.0815 34.7911 32.1636 34.7186C32.2456 34.6461 32.3072 34.5534 32.3422 34.4496C32.3771 34.3459 32.3842 34.2348 32.3628 34.1275L31.7925 31.2765L33.5 29C33.5633 28.9156 33.6043 28.8164 33.6189 28.7118C33.6336 28.6072 33.6215 28.5006 33.5838 28.402C33.5461 28.3033 33.4841 28.2158 33.4034 28.1477C33.3227 28.0795 33.2261 28.0329 33.1225 28.0122ZM30.625 30.75C30.5722 30.8204 30.5349 30.9011 30.5154 30.9868C30.496 31.0725 30.4948 31.1614 30.5121 31.2476L30.9258 33.3165L28.1976 32.4071C28.0693 32.3644 27.9306 32.3644 27.8023 32.4071L25.074 33.3165L25.4878 31.2476C25.505 31.1614 25.5039 31.0725 25.4844 30.9868C25.465 30.9011 25.4276 30.8204 25.3749 30.75L24.095 29.0434L26.2475 28.6129C26.3983 28.5827 26.5326 28.498 26.6249 28.375L27.9999 26.5416L29.3749 28.375C29.4671 28.498 29.6015 28.5827 29.7523 28.6129L31.9048 29.0434L30.625 30.75Z" fill="#181818"/>
<defs>
<linearGradient id="paint0_linear_24802_3923" x1="0" y1="23.45" x2="56" y2="23.45" gradientUnits="userSpaceOnUse">
<stop stop-color="#BEE0FF"/>
<stop offset="1" stop-color="#72BBFF"/>
</linearGradient>
</defs>
</svg>
