<svg width="19" height="19" viewBox="0 0 19 19" fill="none" xmlns="http://www.w3.org/2000/svg">
<g clip-path="url(#clip0_24693_2533)">
<path fill-rule="evenodd" clip-rule="evenodd" d="M7.6244 1.25263C7.74573 0.979642 8.01645 0.803711 8.31518 0.803711C9.11712 0.803711 9.88622 1.12228 10.4533 1.68934C11.0203 2.2564 11.3389 3.0255 11.3389 3.82744V6.09524H14.8577C15.1848 6.09221 15.5088 6.16 15.8073 6.29396C16.1072 6.42857 16.3742 6.62678 16.59 6.87486C16.8057 7.12293 16.9649 7.41494 17.0565 7.73065C17.1482 8.04636 17.1701 8.37823 17.1208 8.70325L16.0776 15.5065C16.0776 15.5067 16.0777 15.5063 16.0776 15.5065C15.9955 16.0471 15.7208 16.5403 15.3042 16.8944C14.8886 17.2477 14.3597 17.4393 13.8144 17.4342H3.02366C2.4222 17.4342 1.84538 17.1953 1.42008 16.77C0.994787 16.3447 0.755859 15.7679 0.755859 15.1664V9.8749C0.755859 9.27344 0.994787 8.69662 1.42008 8.27132C1.84538 7.84603 2.4222 7.6071 3.02366 7.6071H4.80019L7.6244 1.25263ZM6.04738 8.52345L8.77466 2.38709C9.00249 2.45977 9.212 2.58616 9.38423 2.75839C9.66776 3.04192 9.82705 3.42647 9.82705 3.82744V6.85117C9.82705 7.26866 10.1655 7.6071 10.583 7.6071H14.8616L14.8701 7.60705C14.9797 7.60581 15.0882 7.62841 15.1882 7.67328C15.2882 7.71815 15.3772 7.78422 15.4491 7.86691C15.521 7.9496 15.5741 8.04694 15.6046 8.15218C15.6352 8.25731 15.6425 8.36783 15.6261 8.47608C15.6261 8.47618 15.6261 8.47597 15.6261 8.47608L14.5828 15.2799C14.5555 15.4601 14.464 15.6244 14.325 15.7425C14.1861 15.8606 14.0092 15.9245 13.8269 15.9224L6.04738 15.9224V8.52345ZM4.53552 15.9224V9.11897H3.02366C2.82317 9.11897 2.6309 9.19861 2.48913 9.34037C2.34737 9.48214 2.26772 9.67441 2.26772 9.8749V15.1664C2.26772 15.3669 2.34737 15.5592 2.48913 15.7009C2.6309 15.8427 2.82317 15.9224 3.02366 15.9224H4.53552Z" fill="#B1AFAA"/>
</g>
<defs>
<clipPath id="clip0_24693_2533">
<rect width="18.1424" height="18.1424" fill="white" transform="translate(0 0.0478516)"/>
</clipPath>
</defs>
</svg>
