<svg width="21" height="20" viewBox="0 0 21 20" fill="none" xmlns="http://www.w3.org/2000/svg">
<path fill-rule="evenodd" clip-rule="evenodd" d="M12.25 11.6527V12.8902L14.5 11.8496V10.6121L12.25 11.6527ZM8.875 12.1871V13.4246L9.775 13.8465C9.91563 13.9027 10.0844 13.9027 10.2531 13.8465L11.1531 13.4246V12.1871L10.0281 12.6934L8.875 12.1871ZM5.5 11.8496L7.75 12.8902V11.6527L5.5 10.6121V11.8496ZM4.375 11.3434L3.25 10.8371V9.59961L4.375 10.134V10.2465V11.3434ZM15.625 10.1059L16.75 9.59961V10.8371L15.625 11.3434V10.1059ZM10 10.4434L16.75 7.32148V8.55898L10.225 11.5684C10.0844 11.6246 9.91563 11.6246 9.74688 11.5684L3.25 8.55898V7.32148L10 10.4434ZM10 2.68086L15.9625 5.43711L10 8.19336L4.0375 5.43711L10 2.68086ZM9.775 1.55586C9.91563 1.49961 10.0844 1.49961 10.2531 1.55586L17.5656 4.93086H17.5938C17.7063 4.98711 17.7906 5.09961 17.8469 5.21211C17.8469 5.24023 17.875 5.26836 17.875 5.29648C17.875 5.35273 17.9031 5.40898 17.9031 5.46523V15.5902C17.9031 15.8152 17.7625 16.0121 17.5656 16.0965L10.2531 19.4715C10.1125 19.5277 9.94375 19.5277 9.775 19.4715L2.4625 16.0965C2.26562 15.984 2.125 15.7871 2.125 15.5621V5.43711C2.125 5.38086 2.125 5.32461 2.15312 5.26836C2.15312 5.24023 2.15312 5.24023 2.18125 5.21211C2.2375 5.09961 2.32187 4.98711 2.4625 4.93086H2.49063L9.775 1.55586Z" fill="#484848"/>
</svg>
