<svg width="55" height="54" viewBox="0 0 55 54" fill="none" xmlns="http://www.w3.org/2000/svg">
<path d="M15.4375 42.1875H3.625C2.69302 42.1875 1.9375 42.943 1.9375 43.875V50.625C1.9375 51.557 2.69302 52.3125 3.625 52.3125H15.4375C16.3695 52.3125 17.125 51.557 17.125 50.625V43.875C17.125 42.943 16.3695 42.1875 15.4375 42.1875Z" fill="#895130"/>
<path d="M50.875 42.1875H39.0625C38.1305 42.1875 37.375 42.943 37.375 43.875V50.625C37.375 51.557 38.1305 52.3125 39.0625 52.3125H50.875C51.807 52.3125 52.5625 51.557 52.5625 50.625V43.875C52.5625 42.943 51.807 42.1875 50.875 42.1875Z" fill="#895130"/>
<path d="M39.0625 42.1875C38.6149 42.1875 38.1857 42.3653 37.8693 42.6818C37.5528 42.9982 37.375 43.4274 37.375 43.875V49.7812H48.3438C48.7913 49.7812 49.2205 49.6035 49.537 49.287C49.8535 48.9705 50.0312 48.5413 50.0312 48.0938V42.1875H39.0625ZM3.625 42.1875C3.17745 42.1875 2.74822 42.3653 2.43176 42.6818C2.11529 42.9982 1.9375 43.4274 1.9375 43.875V49.7812H12.9062C13.3538 49.7812 13.783 49.6035 14.0995 49.287C14.416 48.9705 14.5938 48.5413 14.5938 48.0938V42.1875H3.625Z" fill="#F78300"/>
<path d="M30.625 42.1875H23.875C22.943 42.1875 22.1875 42.943 22.1875 43.875V50.625C22.1875 51.557 22.943 52.3125 23.875 52.3125H30.625C31.557 52.3125 32.3125 51.557 32.3125 50.625V43.875C32.3125 42.943 31.557 42.1875 30.625 42.1875Z" fill="#F6B940"/>
<path d="M23.875 42.1875C23.4274 42.1875 22.9982 42.3653 22.6818 42.6818C22.3653 42.9982 22.1875 43.4274 22.1875 43.875V49.7812H28.0938C28.5413 49.7812 28.9705 49.6035 29.287 49.287C29.6035 48.9705 29.7812 48.5413 29.7812 48.0938V42.1875H23.875Z" fill="#F9D266"/>
<path d="M38.2188 19.4062H16.2812C15.3493 19.4062 14.5938 20.1618 14.5938 21.0938V32.9062C14.5938 33.8382 15.3493 34.5938 16.2812 34.5938H38.2188C39.1507 34.5938 39.9062 33.8382 39.9062 32.9062V21.0938C39.9062 20.1618 39.1507 19.4062 38.2188 19.4062Z" fill="#72BBFF"/>
<path d="M37.375 31.2188V19.4062H16.2812C15.8337 19.4062 15.4045 19.584 15.088 19.9005C14.7715 20.217 14.5938 20.6462 14.5938 21.0938V31.2188H37.375Z" fill="#72BBFF"/>
<path d="M19.6562 22.7812H32.3125V24.4688H19.6562V22.7812ZM34 22.7812H37.375V24.4688H34V22.7812ZM17.125 26.1562H37.375V27.8438H17.125V26.1562ZM17.125 29.5312H37.375V31.2188H17.125V29.5312Z" fill="#E2E7F6"/>
<path d="M15.4375 1.6875H3.625C2.69302 1.6875 1.9375 2.44302 1.9375 3.375V10.125C1.9375 11.057 2.69302 11.8125 3.625 11.8125H15.4375C16.3695 11.8125 17.125 11.057 17.125 10.125V3.375C17.125 2.44302 16.3695 1.6875 15.4375 1.6875Z" fill="#895130"/>
<path d="M50.875 1.6875H39.0625C38.1305 1.6875 37.375 2.44302 37.375 3.375V10.125C37.375 11.057 38.1305 11.8125 39.0625 11.8125H50.875C51.807 11.8125 52.5625 11.057 52.5625 10.125V3.375C52.5625 2.44302 51.807 1.6875 50.875 1.6875Z" fill="#895130"/>
<path d="M39.0625 1.6875C38.6149 1.6875 38.1857 1.86529 37.8693 2.18176C37.5528 2.49822 37.375 2.92745 37.375 3.375V9.28125H48.3438C48.7913 9.28125 49.2205 9.10346 49.537 8.78699C49.8535 8.47052 50.0312 8.0413 50.0312 7.59375V1.6875H39.0625ZM3.625 1.6875C3.17745 1.6875 2.74822 1.86529 2.43176 2.18176C2.11529 2.49822 1.9375 2.92745 1.9375 3.375V9.28125H12.9062C13.3538 9.28125 13.783 9.10346 14.0995 8.78699C14.416 8.47052 14.5938 8.0413 14.5938 7.59375V1.6875H3.625Z" fill="#F78300"/>
<path d="M30.625 1.6875H23.875C22.943 1.6875 22.1875 2.44302 22.1875 3.375V10.125C22.1875 11.057 22.943 11.8125 23.875 11.8125H30.625C31.557 11.8125 32.3125 11.057 32.3125 10.125V3.375C32.3125 2.44302 31.557 1.6875 30.625 1.6875Z" fill="#F6B940"/>
<path d="M23.875 1.6875C23.4274 1.6875 22.9982 1.86529 22.6818 2.18176C22.3653 2.49822 22.1875 2.92745 22.1875 3.375V9.28125H28.0938C28.5413 9.28125 28.9705 9.10346 29.287 8.78699C29.6035 8.47052 29.7812 8.0413 29.7812 7.59375V1.6875H23.875Z" fill="#F9D266"/>
<path d="M26.4062 11.8125H28.0938V19.4062H26.4062V11.8125ZM43.2812 24.4688H39.9062V22.7812H43.2812C43.505 22.7812 43.7196 22.6924 43.8779 22.5341C44.0361 22.3759 44.125 22.1613 44.125 21.9375V11.8125H45.8125V21.9375C45.8125 22.6088 45.5458 23.2527 45.0711 23.7274C44.5964 24.2021 43.9526 24.4688 43.2812 24.4688ZM14.5938 24.4688H11.2188C10.5474 24.4688 9.90359 24.2021 9.42889 23.7274C8.95418 23.2527 8.6875 22.6088 8.6875 21.9375V11.8125H10.375V21.9375C10.375 22.1613 10.4639 22.3759 10.6221 22.5341C10.7804 22.6924 10.995 22.7812 11.2188 22.7812H14.5938V24.4688ZM26.4062 34.5938H28.0938V42.1875H26.4062V34.5938ZM45.8125 42.1875H44.125V32.0625C44.125 31.8387 44.0361 31.6241 43.8779 31.4659C43.7196 31.3076 43.505 31.2188 43.2812 31.2188H39.9062V29.5312H43.2812C43.9526 29.5312 44.5964 29.7979 45.0711 30.2726C45.5458 30.7473 45.8125 31.3912 45.8125 32.0625V42.1875ZM10.375 42.1875H8.6875V32.0625C8.6875 31.3912 8.95418 30.7473 9.42889 30.2726C9.90359 29.7979 10.5474 29.5312 11.2188 29.5312H14.5938V31.2188H11.2188C10.995 31.2188 10.7804 31.3076 10.6221 31.4659C10.4639 31.6241 10.375 31.8387 10.375 32.0625V42.1875Z" fill="#C8CDED"/>
</svg>
