<svg width="41" height="40" viewBox="0 0 41 40" fill="none" xmlns="http://www.w3.org/2000/svg">
<rect x="1.25" y="0.5" width="39" height="39" rx="19.5" stroke="#969696"/>
<path d="M24.7501 18.3996C25.2375 18.3996 25.7132 18.2513 26.1142 17.9743C26.5152 17.6974 26.8223 17.3049 26.9948 16.8491C27.1673 16.3934 27.197 15.8959 27.0799 15.4228C26.9628 14.9498 26.7044 14.5236 26.3392 14.201C25.974 13.8783 25.5192 13.6745 25.0353 13.6166C24.5515 13.5587 24.0614 13.6495 23.6304 13.8769C23.1994 14.1042 22.8478 14.4575 22.6224 14.8895C22.397 15.3216 22.3084 15.812 22.3685 16.2956L18.4165 18.2716C18.0775 17.9447 17.6498 17.7247 17.1867 17.6392C16.7236 17.5536 16.2455 17.6062 15.812 17.7903C15.3786 17.9745 15.0089 18.2821 14.749 18.6749C14.4892 19.0677 14.3506 19.5282 14.3506 19.9992C14.3506 20.4702 14.4892 20.9307 14.749 21.3235C15.0089 21.7163 15.3786 22.0239 15.812 22.2081C16.2455 22.3923 16.7236 22.4448 17.1867 22.3593C17.6498 22.2737 18.0775 22.0537 18.4165 21.7268L22.3685 23.7028C22.2985 24.2646 22.4294 24.8331 22.738 25.3077C23.0465 25.7824 23.513 26.1326 24.0548 26.2966C24.5967 26.4607 25.1791 26.4278 25.6991 26.204C26.2191 25.9801 26.6432 25.5797 26.8965 25.0734C27.1498 24.567 27.216 23.9875 27.0833 23.4371C26.9506 22.8868 26.6276 22.401 26.1715 22.0657C25.7153 21.7304 25.1553 21.5672 24.5904 21.6049C24.0255 21.6426 23.4921 21.8787 23.0845 22.2716L19.1325 20.2956C19.1567 20.099 19.1567 19.9002 19.1325 19.7036L23.0845 17.7276C23.5149 18.1436 24.1021 18.3996 24.7501 18.3996Z" fill="#F9F6F0"/>
</svg>
