<svg width="49" height="48" viewBox="0 0 49 48" fill="none" xmlns="http://www.w3.org/2000/svg">
<g clip-path="url(#clip0_26721_11311)">
<path d="M36.1597 26.7855C36.1597 28.324 37.4068 29.571 38.9452 29.571H40.8876C42.426 29.571 43.6731 30.8182 43.6731 32.3565C43.6731 33.895 42.4259 35.142 40.8876 35.142H38.9453C37.4068 35.142 36.1598 36.3892 36.1598 37.9275C36.1598 39.466 34.9126 40.713 33.3743 40.713H14.9588C13.4204 40.713 12.1733 39.4659 12.1733 37.9275C12.1733 36.3891 10.9262 35.142 9.38785 35.142H3.04575C1.50741 35.1421 0.260254 33.895 0.260254 32.3566C0.260254 30.8182 1.50741 29.5711 3.04575 29.5711H9.38775C10.9262 29.5711 12.1733 28.324 12.1733 26.7856C12.1733 25.2472 10.9261 24.0001 9.38775 24.0001H7.72041C6.18197 24.0001 4.93491 22.753 4.93491 21.2146C4.93491 19.6762 6.18207 18.4291 7.72041 18.4291H17.2744C18.8128 18.4291 20.0599 17.182 20.0599 15.6436C20.0599 14.1052 18.8127 12.8581 17.2744 12.8581H13.0013C11.4629 12.8581 10.2158 11.611 10.2158 10.0726C10.2158 8.53417 11.463 7.28711 13.0013 7.28711H35.3317C36.8701 7.28711 38.1172 8.53427 38.1172 10.0726C38.1172 11.611 36.87 12.8581 35.3317 12.8581H31.0586C29.5202 12.8581 28.2731 14.1053 28.2731 15.6436C28.2731 17.182 29.5203 18.4291 31.0586 18.4291H45.2873C46.8257 18.4291 48.0728 19.6763 48.0728 21.2146C48.0728 22.753 46.8256 24.0001 45.2873 24.0001H38.9453C37.4068 24 36.1597 25.2472 36.1597 26.7855Z" fill="#6D7B90"/>
<path d="M38.9894 11.8547V34.5872C38.9894 36.4169 37.5062 37.9001 35.6765 37.9001H12.6626C14.4919 37.9001 15.9754 36.4167 15.9754 34.5872V11.8547C15.9754 10.8832 16.7629 10.0957 17.7345 10.0957H37.2303C38.2019 10.0957 38.9894 10.8832 38.9894 11.8547Z" fill="#BAE3F5"/>
<path d="M9.3457 21.3196V34.4435C9.3457 36.1749 10.6115 37.721 12.335 37.8853C14.3121 38.0738 15.9755 36.5241 15.9755 34.586V19.5605H11.1047C10.1333 19.5605 9.3457 20.3481 9.3457 21.3196Z" fill="#8ACC34"/>
<path d="M18.8311 21.1973H28.0366V34.002H18.8311V21.1973Z" fill="#F1CE51"/>
<path d="M38.9869 30.377C38.9241 30.3769 38.8619 30.3893 38.8039 30.4133C38.7459 30.4373 38.6932 30.4725 38.6487 30.5169C38.6043 30.5613 38.5691 30.614 38.5451 30.6721C38.5211 30.7301 38.5088 30.7923 38.5088 30.8551V31.104C38.5088 31.3683 38.7226 31.5821 38.9869 31.5821C39.2512 31.5821 39.465 31.3683 39.465 31.104V30.8551C39.465 30.5908 39.2511 30.377 38.9869 30.377Z" fill="#1E2E49"/>
<path d="M12.2896 38.3612C12.7316 38.4037 12.2579 38.3728 35.6785 38.3813C37.7666 38.3813 39.4652 36.6803 39.4652 34.5899V33.2891C39.4652 33.0248 39.2514 32.8109 38.9871 32.8109C38.7228 32.8109 38.509 33.0248 38.509 33.2891V34.5899C38.509 36.1532 37.2394 37.425 35.6785 37.425H15.1766C15.9421 36.7473 16.4536 35.7058 16.4536 34.5862L16.4532 11.8547C16.4532 11.1483 17.028 10.5735 17.7344 10.5735H37.2324C37.9366 10.5735 38.509 11.1483 38.509 11.8547V28.6708C38.509 28.9351 38.7228 29.149 38.9871 29.149C39.2514 29.149 39.4652 28.9351 39.4652 28.6708V11.8546C39.4652 10.6211 38.4637 9.61719 37.2324 9.61719H17.7344C16.5008 9.61719 15.4969 10.6211 15.4969 11.8546V19.0826H11.1046C9.87108 19.0826 8.86768 20.086 8.86768 21.3195V34.4437C8.86749 36.4575 10.3706 38.1781 12.2896 38.3612ZM9.82374 21.3195C9.82374 20.6136 10.3985 20.0388 11.1045 20.0388H15.4967V34.5898C15.4967 36.3695 13.9581 37.5552 12.38 37.4096C10.9466 37.2728 9.82364 35.97 9.82364 34.4437L9.82374 21.3195Z" fill="#1E2E49"/>
<path d="M26.3358 14.4742C26.6001 14.4742 26.814 14.2603 26.814 13.9961C26.814 13.7318 26.6001 13.5179 26.3358 13.5179H23.4316C23.3688 13.5179 23.3066 13.5302 23.2485 13.5542C23.1905 13.5783 23.1378 13.6135 23.0934 13.6579C23.049 13.7023 23.0138 13.755 22.9897 13.813C22.9657 13.8711 22.9534 13.9333 22.9534 13.9961V17.9742C22.9534 18.2385 23.1673 18.4524 23.4316 18.4524H26.3358C26.6001 18.4524 26.814 18.2385 26.814 17.9742C26.814 17.71 26.6001 17.4961 26.3358 17.4961H23.9097V16.4633H26.3358C26.6001 16.4633 26.814 16.2494 26.814 15.9851C26.814 15.7209 26.6001 15.507 26.3358 15.507H23.9097V14.4742H26.3358ZM34.2263 14.4742H36.136C36.4003 14.4742 36.6141 14.2603 36.6141 13.9961C36.6141 13.7318 36.4003 13.5179 36.136 13.5179H34.2263C33.4143 13.5179 32.7541 14.1786 32.7541 14.9906C32.7541 15.8025 33.4143 16.4632 34.2263 16.4632H35.1415C35.4263 16.4632 35.6579 16.6947 35.6579 16.9796C35.6579 17.2644 35.4263 17.4959 35.1415 17.4959H33.2323C32.968 17.4959 32.7541 17.7098 32.7541 17.9741C32.7541 18.2383 32.968 18.4522 33.2323 18.4522H35.1415C35.9535 18.4522 36.6141 17.7915 36.6141 16.9796C36.6141 16.1676 35.9535 15.5069 35.1415 15.5069H34.2263C33.942 15.5069 33.7104 15.2754 33.7104 14.9906C33.7104 14.7057 33.942 14.4742 34.2263 14.4742ZM29.8438 18.1068C30.0869 18.3191 30.4008 18.4523 30.7482 18.4523C31.5106 18.4523 32.1312 17.8317 32.1312 17.0693V13.9961C32.1312 13.7318 31.9173 13.5179 31.6531 13.5179C31.3888 13.5179 31.1749 13.7318 31.1749 13.9961V17.0693C31.1748 17.1824 31.1298 17.2909 31.0498 17.3709C30.9698 17.4509 30.8613 17.4959 30.7482 17.496C30.6351 17.4958 30.5267 17.4508 30.4468 17.3708C30.3669 17.2908 30.322 17.1823 30.3219 17.0693V15.2053C30.3219 14.9411 30.1081 14.7272 29.8438 14.7272C29.5795 14.7272 29.3656 14.9411 29.3656 15.2053V17.0693C29.3656 17.3046 29.1742 17.496 28.9394 17.496C28.7045 17.496 28.5131 17.3046 28.5131 17.0693V13.9961C28.5131 13.7318 28.2992 13.5179 28.035 13.5179C27.7707 13.5179 27.5568 13.7318 27.5568 13.9961V17.0693C27.5568 17.8317 28.1769 18.4523 28.9394 18.4523C29.2867 18.4523 29.6007 18.3191 29.8438 18.1068ZM18.8287 18.4523C19.093 18.4523 19.3068 18.2384 19.3068 17.9741V15.4621L21.3464 18.2561C21.3907 18.317 21.4488 18.3664 21.5159 18.4005C21.583 18.4346 21.6573 18.4523 21.7325 18.4523C21.9998 18.4523 22.2106 18.2352 22.2106 17.9741V13.996C22.2106 13.7317 21.9968 13.5178 21.7325 13.5178C21.4682 13.5178 21.2544 13.7317 21.2544 13.996V16.508L19.2149 13.714C19.1554 13.6324 19.0716 13.5718 18.9756 13.5407C18.8796 13.5097 18.7762 13.5099 18.6802 13.5412C18.5844 13.5726 18.5009 13.6335 18.4417 13.7151C18.3825 13.7968 18.3506 13.8951 18.3506 13.996V17.9741C18.3506 18.2384 18.5644 18.4523 18.8287 18.4523ZM18.8311 34.4807H28.0364C28.3006 34.4807 28.5145 34.2669 28.5145 34.0026V21.1978C28.5145 20.9336 28.3006 20.7197 28.0364 20.7197H18.8311C18.7683 20.7197 18.7061 20.732 18.648 20.756C18.59 20.78 18.5373 20.8153 18.4929 20.8597C18.4485 20.9041 18.4133 20.9568 18.3892 21.0148C18.3652 21.0728 18.3529 21.135 18.3529 21.1978V34.0026C18.3529 34.2669 18.5668 34.4807 18.8311 34.4807ZM19.3092 21.676H27.5582V33.5245H19.3092V21.676ZM36.136 21.0423H31.2324C30.9681 21.0423 30.7543 21.2561 30.7543 21.5204C30.7543 21.7847 30.9681 21.9986 31.2324 21.9986H36.136C36.4003 21.9986 36.6141 21.7847 36.6141 21.5204C36.6141 21.2561 36.4003 21.0423 36.136 21.0423ZM36.136 25.0956H31.2324C30.9681 25.0956 30.7543 25.3094 30.7543 25.5737C30.7543 25.838 30.9681 26.0518 31.2324 26.0518H36.136C36.4003 26.0518 36.6141 25.838 36.6141 25.5737C36.6141 25.3094 36.4003 25.0956 36.136 25.0956ZM36.136 29.1485H31.2324C30.9681 29.1485 30.7543 29.3623 30.7543 29.6266C30.7543 29.8909 30.9681 30.1047 31.2324 30.1047H36.136C36.4003 30.1047 36.6141 29.8909 36.6141 29.6266C36.6141 29.3623 36.4003 29.1485 36.136 29.1485ZM36.136 33.2013H31.2324C30.9681 33.2013 30.7543 33.4151 30.7543 33.6794C30.7543 33.9437 30.9681 34.1576 31.2324 34.1576H36.136C36.4003 34.1576 36.6141 33.9437 36.6141 33.6794C36.6141 33.4151 36.4003 33.2013 36.136 33.2013Z" fill="#1E2E49"/>
</g>
<defs>
<clipPath id="clip0_26721_11311">
<rect width="48" height="48" fill="white" transform="translate(0.166504)"/>
</clipPath>
</defs>
</svg>
