<svg width="16" height="17" viewBox="0 0 16 17" fill="none" xmlns="http://www.w3.org/2000/svg">
<path d="M14.4398 7.80408L13.7865 10.5907C13.2265 12.9974 12.1198 13.9707 10.0398 13.7707C9.70646 13.7441 9.34646 13.6841 8.95979 13.5907L7.83979 13.3241C5.05979 12.6641 4.19979 11.2907 4.85313 8.50408L5.50646 5.71075C5.63979 5.14408 5.79979 4.65075 5.99979 4.24408C6.77979 2.63075 8.10646 2.19741 10.3331 2.72408L11.4465 2.98408C14.2398 3.63741 15.0931 5.01741 14.4398 7.80408Z" stroke="#666666" stroke-linecap="round" stroke-linejoin="round"/>
<path d="M10.0402 13.7708C9.62689 14.0508 9.10689 14.2841 8.47356 14.4908L7.42023 14.8375C4.77356 15.6908 3.38023 14.9775 2.52023 12.3308L1.66689 9.69747C0.813561 7.05081 1.52023 5.65081 4.16689 4.79747L5.22023 4.45081C5.49356 4.36414 5.75356 4.29081 6.00023 4.24414C5.80023 4.65081 5.64023 5.14414 5.50689 5.71081L4.85356 8.50414C4.20023 11.2908 5.06023 12.6641 7.84023 13.3241L8.96023 13.5908C9.34689 13.6841 9.70689 13.7441 10.0402 13.7708Z" stroke="#666666" stroke-linecap="round" stroke-linejoin="round"/>
</svg>
