<svg width="24" height="24" viewBox="0 0 24 24" fill="none" xmlns="http://www.w3.org/2000/svg">
<path opacity="0.4" d="M11.97 22C17.4928 22 21.97 17.5228 21.97 12C21.97 6.47715 17.4928 2 11.97 2C6.44712 2 1.96997 6.47715 1.96997 12C1.96997 17.5228 6.44712 22 11.97 22Z" fill="#F1F8FF"/>
<path d="M10.72 15.0308V8.97078C10.72 8.49078 10.52 8.30078 10.01 8.30078H8.71C8.2 8.30078 8 8.49078 8 8.97078V15.0308C8 15.5108 8.2 15.7008 8.71 15.7008H10C10.52 15.7008 10.72 15.5108 10.72 15.0308Z" fill="#F1F8FF"/>
<path d="M16 15.0308V8.97078C16 8.49078 15.8 8.30078 15.29 8.30078H14C13.49 8.30078 13.29 8.49078 13.29 8.97078V15.0308C13.29 15.5108 13.49 15.7008 14 15.7008H15.29C15.8 15.7008 16 15.5108 16 15.0308Z" fill="#F1F8FF"/>
</svg>
