<svg width="25" height="24" viewBox="0 0 25 24" fill="none" xmlns="http://www.w3.org/2000/svg">
<path d="M22.1432 6.04388C22.7699 5.65222 22.7699 4.73956 22.1432 4.34789L17.03 1.15214C16.364 0.735855 15.5 1.2147 15.5 2.00013V8.39164C15.5 9.17707 16.364 9.65592 17.03 9.23964L22.1432 6.04388Z" fill="#A8A8A8"/>
<path d="M2.97008 19.0439C2.34341 18.6522 2.34341 17.7396 2.97008 17.3479L8.08328 14.1521C8.74933 13.7359 9.61328 14.2147 9.61328 15.0001V21.3916C9.61328 22.1771 8.74933 22.6559 8.08328 22.2396L2.97008 19.0439Z" fill="#A8A8A8"/>
<path d="M4.5 11V11C4.5 7.68629 7.18629 5 10.5 5V5H15.5" stroke="#A8A8A8" stroke-width="2" stroke-linecap="round" stroke-linejoin="round"/>
<path d="M19.5 12V12C19.5 15.3137 16.8137 18 13.5 18V18H8.5" stroke="#A8A8A8" stroke-width="2" stroke-linecap="round" stroke-linejoin="round"/>
</svg>
