<svg width="25" height="24" viewBox="0 0 25 24" fill="none" xmlns="http://www.w3.org/2000/svg">
<path d="M16.5 9H15.75C15.75 10.7949 14.2949 12.25 12.5 12.25V13V13.75C15.1234 13.75 17.25 11.6234 17.25 9H16.5ZM12.5 13V12.25C10.7051 12.25 9.25 10.7949 9.25 9H8.5H7.75C7.75 11.6234 9.87665 13.75 12.5 13.75V13ZM8.5 9H9.25C9.25 7.20507 10.7051 5.75 12.5 5.75V5V4.25C9.87665 4.25 7.75 6.37665 7.75 9H8.5ZM12.5 5V5.75C14.2949 5.75 15.75 7.20507 15.75 9H16.5H17.25C17.25 6.37665 15.1234 4.25 12.5 4.25V5ZM9.5 16V16.75H15.5V16V15.25H9.5V16ZM2.5 12H3.25C3.25 6.89137 7.39137 2.75 12.5 2.75V2V1.25C6.56294 1.25 1.75 6.06294 1.75 12H2.5ZM12.5 2V2.75C17.6086 2.75 21.75 6.89137 21.75 12H22.5H23.25C23.25 6.06294 18.4371 1.25 12.5 1.25V2ZM22.5 12H21.75C21.75 14.6233 20.659 16.9905 18.9039 18.6748L19.4232 19.2159L19.9425 19.7571C21.9801 17.8016 23.25 15.0485 23.25 12H22.5ZM19.4232 19.2159L18.9039 18.6748C17.2412 20.2705 14.9858 21.25 12.5 21.25V22V22.75C15.3882 22.75 18.0117 21.61 19.9425 19.7571L19.4232 19.2159ZM15.5 16V16.75C17.076 16.75 18.3915 17.8726 18.6876 19.3621L19.4232 19.2159L20.1588 19.0697C19.726 16.8918 17.8055 15.25 15.5 15.25V16ZM12.5 22V21.25C10.0142 21.25 7.75884 20.2705 6.09612 18.6748L5.57681 19.2159L5.05751 19.7571C6.98833 21.61 9.61182 22.75 12.5 22.75V22ZM5.57681 19.2159L6.09612 18.6748C4.34103 16.9905 3.25 14.6233 3.25 12H2.5H1.75C1.75 15.0485 3.01989 17.8016 5.05751 19.7571L5.57681 19.2159ZM9.5 16V15.25C7.19445 15.25 5.27403 16.8918 4.8412 19.0697L5.57681 19.2159L6.31243 19.3621C6.60846 17.8726 7.92396 16.75 9.5 16.75V16Z" fill="#969696"/>
</svg>
