<svg width="24" height="24" viewBox="0 0 24 24" fill="none" xmlns="http://www.w3.org/2000/svg">
<path opacity="0.4" d="M11.9702 22C17.4931 22 21.9702 17.5228 21.9702 12C21.9702 6.47715 17.4931 2 11.9702 2C6.44737 2 1.97021 6.47715 1.97021 12C1.97021 17.5228 6.44737 22 11.9702 22Z" fill="#72BBFF"/>
<path d="M14.9699 10.2291L12.0699 8.55914C11.3499 8.13914 10.4799 8.13914 9.75986 8.55914C9.03986 8.97914 8.60986 9.71914 8.60986 10.5591V13.9091C8.60986 14.7391 9.03986 15.4891 9.75986 15.9091C10.1199 16.1191 10.5199 16.2191 10.9099 16.2191C11.3099 16.2191 11.6999 16.1191 12.0599 15.9091L14.9599 14.2391C15.6799 13.8191 16.1099 13.0791 16.1099 12.2391C16.1299 11.3991 15.6999 10.6491 14.9699 10.2291Z" fill="#72BBFF"/>
</svg>
