<svg width="55" height="54" viewBox="0 0 55 54" fill="none" xmlns="http://www.w3.org/2000/svg">
<g clip-path="url(#clip0_24898_10774)">
<path d="M12.4625 38.5168L15.1098 43.1669L20.0731 51.8913C20.2121 52.1347 20.3981 52.3479 20.6204 52.5186C20.8427 52.6893 21.0967 52.8139 21.3677 52.8853C21.6388 52.9567 21.9213 52.9734 22.1988 52.9344C22.4763 52.8953 22.7433 52.8014 22.9841 52.658L33.4666 46.3847L34.7111 45.6359L35.615 45.9112L48.1974 49.7376C48.6245 49.8645 49.0808 49.853 49.5009 49.7046C49.9211 49.5562 50.2834 49.2786 50.536 48.9116C50.7886 48.5445 50.9185 48.107 50.9071 47.6615C50.8957 47.2161 50.7435 46.7858 50.4724 46.4322L45.9066 40.5555L42.9219 36.7154C42.7596 36.4775 42.5503 36.2753 42.307 36.1214C42.0636 35.9674 41.7913 35.8649 41.5068 35.8202C41.2223 35.7755 40.9317 35.7895 40.6528 35.8614C40.374 35.9332 40.1128 36.0614 39.8853 36.2381C39.6579 36.4147 39.4691 36.6361 39.3304 36.8885C39.1918 37.1409 39.1063 37.419 39.0792 37.7057C39.0522 37.9924 39.0841 38.2816 39.1731 38.5555C39.262 38.8294 39.4061 39.0822 39.5965 39.2983L41.0836 41.2136L43.0801 43.7807L38.8729 42.5046L35.0444 41.3444C34.763 41.2592 34.4669 41.234 34.1751 41.2703C33.8834 41.3066 33.6025 41.4037 33.3506 41.5553L27.8019 44.8765L22.6698 47.9478L19.7747 42.861L16.1233 36.4464C15.8299 35.9965 15.3759 35.6754 14.8538 35.5487C14.3318 35.4221 13.7811 35.4994 13.3141 35.7648C12.847 36.0303 12.4989 36.4639 12.3407 36.9773C12.1824 37.4906 12.226 38.045 12.4625 38.5273V38.5168Z" fill="#895130"/>
<path d="M39.5974 39.2956L41.0845 41.2098C42.4355 40.9367 44.3182 40.7131 45.9065 40.5538L42.9218 36.7126C42.5663 36.3118 42.0716 36.0612 41.5382 36.0117C41.0047 35.9623 40.4724 36.1177 40.0493 36.4464C39.6262 36.7751 39.3441 37.2525 39.2602 37.7817C39.1762 38.3108 39.2968 38.8521 39.5974 39.2956ZM27.8018 44.8643C27.902 44.9076 28.0022 44.9518 28.1034 44.9983C30.3731 46.0245 32.1112 46.4063 33.4675 46.3788L34.711 45.6332L35.6159 45.9074C37.2792 45.1311 38.0839 43.5649 38.8728 42.4976L35.0432 41.3322C34.7619 41.247 34.4657 41.2217 34.174 41.2581C33.8822 41.2944 33.6013 41.3915 33.3494 41.5431L27.8018 44.8643ZM12.4624 38.5161L15.1097 43.1663C16.6439 42.8587 18.2117 42.7524 19.7735 42.8499L16.1222 36.4363C15.8282 35.9873 15.3742 35.6673 14.8525 35.5414C14.3309 35.4154 13.7808 35.493 13.3144 35.7583C12.848 36.0237 12.5002 36.4568 12.3419 36.9696C12.1836 37.4823 12.2267 38.0362 12.4624 38.5183V38.5161Z" fill="#4C1505"/>
<path d="M0.75 15.6655L11.0016 37.5967L33.3778 44.1231L54.75 30.8594L53.5297 28.8323L41.9471 9.58105L24.9477 20.1838L1.78359 13.7629L0.75 15.6655Z" fill="#895130"/>
<path d="M1.78369 13.7629L12.5246 34.6552L32.9054 41.2407L53.5298 28.8323L41.9473 9.58105L24.9478 20.1838L1.78369 13.7629Z" fill="#F78300"/>
<path d="M8.19189 15.4109L16.7517 33.0126L32.1671 38.7269L47.2997 29.6966L37.045 10.7207C36.6442 10.7481 36.2512 10.7801 35.8659 10.8167C30.3519 11.344 26.5688 12.8691 24.3634 17.2049C21.0612 13.8605 16.2782 13.5641 9.53451 14.4269L8.19189 15.4109Z" fill="#F0E0D0"/>
<path d="M32.167 39.3524C32.2807 39.3521 32.3921 39.3211 32.4897 39.2628L47.6224 30.2304C47.7605 30.1465 47.8614 30.0129 47.9041 29.8569C47.9469 29.701 47.9283 29.5346 47.8523 29.392L37.5976 10.4202C37.5646 10.3371 37.5144 10.2619 37.4503 10.1996C37.3862 10.1372 37.3096 10.0892 37.2255 10.0586C37.1415 10.0281 37.0519 10.0156 36.9627 10.0222C36.8735 10.0288 36.7868 10.0542 36.7081 10.0967C36.6295 10.1393 36.5607 10.198 36.5064 10.2691C36.4521 10.3402 36.4135 10.4219 36.3931 10.509C36.3727 10.5961 36.371 10.6865 36.3881 10.7743C36.4052 10.862 36.4407 10.9452 36.4923 11.0183L46.4601 29.4605L32.1026 38.0288L17.2031 32.5054L8.75609 15.1336C8.72664 15.0493 8.67967 14.9722 8.61829 14.9074C8.55691 14.8425 8.4825 14.7914 8.39994 14.7574C8.31739 14.7233 8.22857 14.7071 8.13931 14.7099C8.05006 14.7126 7.96239 14.7342 7.88208 14.7732C7.80176 14.8123 7.73062 14.8678 7.67332 14.9363C7.61603 15.0048 7.57387 15.0847 7.54964 15.1706C7.5254 15.2566 7.51962 15.3467 7.53269 15.435C7.54576 15.5233 7.57738 15.6079 7.62547 15.6831L16.1853 33.2817C16.2561 33.4277 16.3803 33.541 16.5323 33.5981L31.9487 39.3134C32.0184 39.3397 32.0924 39.353 32.167 39.3524Z" fill="#19A963"/>
<path d="M8.19189 15.4109L16.7517 33.0126L32.0542 38.1806L47.3018 29.6893L37.0471 10.7207C36.6453 10.7481 36.2529 10.7798 35.8669 10.8167L45.6628 29.0132C41.3144 27.7792 37.2781 28.7253 31.9108 34.5387C29.4734 31.3926 24.0649 30.109 17.7938 30.7155L9.53557 14.4269L8.19189 15.4109Z" fill="#F4D5C1"/>
<path d="M31.9097 34.9477C31.9775 34.9478 32.0443 34.9309 32.104 34.8987C32.1637 34.8665 32.2144 34.8199 32.2516 34.7632C32.2887 34.7064 32.3112 34.6413 32.3169 34.5737C32.3225 34.5061 32.3113 34.4382 32.2841 34.376L24.7378 17.0423C24.7164 16.9931 24.6856 16.9486 24.647 16.9114C24.6084 16.8741 24.5628 16.8449 24.5129 16.8252C24.463 16.8056 24.4098 16.796 24.3562 16.7969C24.3025 16.7979 24.2496 16.8094 24.2005 16.8308C24.1513 16.8522 24.1068 16.8831 24.0696 16.9217C24.0323 16.9602 24.0031 17.0058 23.9834 17.0557C23.9638 17.1056 23.9542 17.1589 23.9551 17.2125C23.9561 17.2661 23.9676 17.319 23.989 17.3682L31.5353 34.6998C31.5663 34.7735 31.6184 34.8363 31.685 34.8804C31.7516 34.9245 31.8298 34.9479 31.9097 34.9477Z" fill="#F4D5C1"/>
<path d="M13.3323 11.5376C12.1722 10.8387 11.012 10.1387 9.85185 9.43772L8.8615 8.83971C8.72176 8.75444 8.61874 8.62023 8.57251 8.46319C8.54177 8.34315 8.54696 8.21673 8.58742 8.09961C8.62787 7.98248 8.70183 7.87982 8.8001 7.80434C8.89838 7.72887 9.01665 7.68391 9.14024 7.67503C9.26384 7.66616 9.38732 7.69377 9.49536 7.75444C10.6555 8.45756 11.8157 9.15753 12.9758 9.85432L13.9651 10.4534C14.1054 10.5378 14.2089 10.6718 14.2552 10.8289C14.2859 10.9489 14.2807 11.0753 14.2403 11.1924C14.1998 11.3096 14.1259 11.4122 14.0276 11.4877C13.9293 11.5632 13.811 11.6081 13.6874 11.617C13.5638 11.6259 13.4404 11.5983 13.3323 11.5376ZM17.9698 7.89999L15.8119 4.45749C15.6062 4.13159 15.4027 3.80358 15.1981 3.47768C15.1151 3.33362 15.0921 3.16269 15.1342 3.00185C15.1762 2.841 15.2799 2.70316 15.4227 2.61811C15.5679 2.53778 15.7386 2.51685 15.8989 2.55973C16.0592 2.60261 16.1966 2.70595 16.2823 2.84804L18.4402 6.29053L19.054 7.26928C19.1347 7.41266 19.1563 7.58183 19.1144 7.74091C19.0725 7.9 18.9702 8.0365 18.8293 8.12147C18.6847 8.20173 18.5146 8.22318 18.3546 8.18134C18.1945 8.13951 18.0567 8.03761 17.9698 7.89682V7.89999ZM24.3021 6.87694C24.4118 5.52764 24.5226 4.178 24.6344 2.828L24.7293 1.67628C24.7333 1.51065 24.7987 1.35242 24.9128 1.23225C25.0312 1.11535 25.1909 1.0498 25.3573 1.0498C25.5237 1.0498 25.6835 1.11535 25.8019 1.23225C25.8607 1.29025 25.9073 1.3594 25.939 1.43565C25.9707 1.5119 25.9868 1.59371 25.9865 1.67628L25.6532 5.72522L25.5583 6.87694C25.5542 7.04257 25.4888 7.2008 25.3747 7.32096C25.2563 7.43787 25.0966 7.50341 24.9302 7.50341C24.7638 7.50341 24.6041 7.43787 24.4856 7.32096C24.427 7.26291 24.3806 7.19373 24.3491 7.11748C24.3175 7.04123 24.3016 6.95945 24.3021 6.87694ZM30.4278 8.16366L33.4663 5.46682L34.3312 4.69901C34.4515 4.58461 34.6102 4.51919 34.7762 4.5155C34.9441 4.5155 35.105 4.58217 35.2237 4.70084C35.3424 4.81952 35.409 4.98048 35.409 5.14831C35.4067 5.31471 35.3388 5.47347 35.2203 5.59022L32.1796 8.28495L31.3147 9.05276C31.1944 9.16716 31.0357 9.23258 30.8697 9.23627C30.7033 9.23585 30.5438 9.16992 30.4256 9.05276C30.3087 8.93433 30.2432 8.77462 30.2432 8.60821C30.2432 8.4418 30.3087 8.28209 30.4256 8.16366H30.4278Z" fill="#FFD02C"/>
<path d="M24.0764 21.8672C23.1189 21.5172 22.1349 21.2445 21.1338 21.0519C20.8838 21.0034 20.6328 20.9612 20.3808 20.9232L20.1909 20.8958L20.1044 20.8842H20.115L20.057 20.8758C19.9315 20.8599 19.8049 20.8441 19.6773 20.8315C19.171 20.7766 18.663 20.7415 18.1533 20.726C17.5753 20.7091 16.9977 20.719 16.4204 20.7555C16.3365 20.7555 16.256 20.7222 16.1967 20.6629C16.1373 20.6035 16.104 20.523 16.104 20.4391C16.104 20.3552 16.1373 20.2747 16.1967 20.2154C16.256 20.1561 16.3365 20.1227 16.4204 20.1227C17.4476 20.0587 18.4782 20.0781 19.5022 20.1807C20.5451 20.2834 21.5781 20.4693 22.5914 20.7365C23.1493 20.8853 23.702 21.0582 24.2451 21.2576C24.2897 21.2639 24.3324 21.2797 24.3704 21.3039C24.4083 21.3281 24.4407 21.3602 24.4653 21.3979C24.4899 21.4356 24.5062 21.4781 24.513 21.5226C24.5199 21.5671 24.5172 21.6125 24.5051 21.6559C24.493 21.6992 24.4718 21.7395 24.4428 21.774C24.4139 21.8085 24.378 21.8365 24.3374 21.856C24.2968 21.8755 24.2525 21.8861 24.2075 21.8871C24.1625 21.8881 24.1178 21.8795 24.0764 21.8619V21.8672ZM22.6526 18.7115C21.6952 18.3611 20.7112 18.0884 19.71 17.8963C19.46 17.8478 19.209 17.8056 18.9569 17.7676L18.7671 17.7402L18.6806 17.7286C18.6437 17.7233 18.6859 17.7286 18.6912 17.7286L18.6331 17.7201C18.5066 17.7043 18.3811 17.6885 18.2535 17.6758C17.7472 17.621 17.2378 17.5851 16.7294 17.5704C16.1508 17.5535 15.5731 17.5633 14.9966 17.5999C14.9127 17.5999 14.8322 17.5666 14.7728 17.5072C14.7135 17.4479 14.6802 17.3674 14.6802 17.2835C14.6802 17.1996 14.7135 17.1191 14.7728 17.0598C14.8322 17.0004 14.9127 16.9671 14.9966 16.9671C16.0237 16.9031 17.0544 16.9225 18.0784 17.0251C19.1209 17.1278 20.1536 17.3137 21.1665 17.5809C21.7255 17.73 22.2771 17.9037 22.8213 18.1019C22.8659 18.1083 22.9086 18.1241 22.9465 18.1483C22.9845 18.1725 23.0169 18.2045 23.0415 18.2422C23.0661 18.2799 23.0824 18.3225 23.0892 18.3669C23.0961 18.4114 23.0934 18.4569 23.0813 18.5002C23.0691 18.5436 23.0479 18.5839 23.019 18.6184C22.9901 18.6529 22.9541 18.6808 22.9136 18.7003C22.873 18.7198 22.8287 18.7305 22.7837 18.7315C22.7387 18.7325 22.694 18.7239 22.6526 18.7063V18.7115ZM25.2365 25.0238C24.279 24.674 23.295 24.4014 22.294 24.2086C22.044 24.1601 21.793 24.1179 21.5409 24.0799L21.3511 24.0525L21.2646 24.0409C21.2277 24.0356 21.2699 24.0409 21.2751 24.0409L21.2171 24.0335C21.0906 24.0177 20.964 24.0019 20.8374 23.9881C20.3312 23.9333 19.8218 23.8974 19.3134 23.8827C18.7344 23.8647 18.1533 23.8753 17.5806 23.9112C17.4966 23.9112 17.4162 23.8778 17.3568 23.8185C17.2975 23.7591 17.2642 23.6787 17.2642 23.5947C17.2642 23.5108 17.2975 23.4304 17.3568 23.371C17.4162 23.3117 17.4966 23.2783 17.5806 23.2783C18.6077 23.2149 19.6383 23.2343 20.6624 23.3363C21.7049 23.4392 22.7375 23.625 23.7505 23.8922C24.3095 24.0405 24.8611 24.2142 25.4053 24.4132C25.4845 24.437 25.5514 24.4904 25.5923 24.5623C25.6331 24.6342 25.6447 24.719 25.6247 24.7992C25.573 24.95 25.4011 25.0787 25.2365 25.0175V25.0238ZM26.731 28.1816C25.7737 27.8311 24.7897 27.5585 23.7885 27.3663C23.5385 27.3178 23.2875 27.2756 23.0354 27.2376L22.8456 27.2092L22.7591 27.1976C22.7222 27.1923 22.7591 27.1976 22.7696 27.1976L22.7116 27.1902C22.5861 27.1744 22.4596 27.1585 22.3319 27.1459C21.8257 27.0903 21.3177 27.0552 20.8079 27.0404C20.2299 27.0235 19.6478 27.0341 19.0751 27.0689C18.9911 27.0689 18.9107 27.0356 18.8513 26.9762C18.792 26.9169 18.7587 26.8364 18.7587 26.7525C18.76 26.669 18.7938 26.5893 18.8528 26.5303C18.9119 26.4712 18.9916 26.4374 19.0751 26.4361C20.1022 26.3726 21.1328 26.392 22.1569 26.4941C23.1998 26.5972 24.2328 26.7834 25.246 27.051C25.8085 27.1986 26.3598 27.3719 26.8998 27.5709C26.9439 27.5778 26.9861 27.5939 27.0236 27.6183C27.061 27.6427 27.0929 27.6747 27.1171 27.7122C27.1413 27.7498 27.1572 27.792 27.1639 27.8362C27.1706 27.8804 27.1678 27.9255 27.1558 27.9685C27.1438 28.0115 27.1229 28.0515 27.0943 28.0859C27.0657 28.1202 27.0302 28.1481 26.9901 28.1678C26.95 28.1874 26.9061 28.1983 26.8615 28.1998C26.8168 28.2013 26.7724 28.1933 26.731 28.1763V28.1816ZM34.3712 14.2544C33.3174 14.4057 32.2853 14.6819 31.2968 15.0771L31.1154 15.1509L31.0669 15.171C31.0669 15.171 31.1154 15.1499 31.0806 15.1646C31.0458 15.1794 31.0088 15.1942 30.9751 15.21C30.8559 15.2627 30.7378 15.3155 30.6186 15.3724C30.376 15.4863 30.1356 15.6087 29.8993 15.7373C29.4345 15.9918 28.9851 16.2735 28.5535 16.5811C28.4322 16.6665 28.3141 16.753 28.197 16.8426L28.1559 16.8743L28.1475 16.8806C28.119 16.9017 28.0916 16.9228 28.0652 16.9449L27.8933 17.0831C27.6581 17.2751 27.4292 17.4765 27.2078 17.6843C27.1469 17.7325 27.0704 17.7567 26.9928 17.7521C26.9153 17.7476 26.8421 17.7147 26.7873 17.6597C26.7324 17.6048 26.6997 17.5315 26.6954 17.454C26.691 17.3764 26.7154 17.3 26.7637 17.2392C27.5626 16.4901 28.4477 15.8387 29.4004 15.2986C30.3548 14.7602 31.369 14.3355 32.4221 14.033C33.0067 13.866 33.6018 13.7388 34.2035 13.6522C34.2855 13.6323 34.372 13.6435 34.4461 13.6839C34.5167 13.7254 34.5685 13.7927 34.5906 13.8716C34.6233 14.0214 34.5442 14.2344 34.3712 14.2597V14.2544ZM36.2222 17.5503C35.1684 17.7026 34.1365 17.9791 33.1478 18.374C33.0876 18.3972 33.0275 18.4226 32.9663 18.4479L32.9178 18.4669L32.9326 18.4605L32.8271 18.5069C32.7069 18.5586 32.5888 18.6124 32.4706 18.6683C32.227 18.7822 31.9865 18.9046 31.7513 19.0343C31.286 19.2884 30.8362 19.5702 30.4045 19.878C30.2832 19.9635 30.1651 20.0499 30.048 20.1396L30.0079 20.1712C29.9605 20.2071 30.029 20.1544 29.9985 20.1776C29.9679 20.2008 29.9436 20.2197 29.9172 20.2419L29.7443 20.3801C29.5091 20.572 29.2802 20.7735 29.0598 20.9812C29.0321 21.0162 28.9973 21.0449 28.9578 21.0655C28.9182 21.086 28.8747 21.098 28.8302 21.1006C28.7857 21.1032 28.7411 21.0964 28.6994 21.0805C28.6578 21.0647 28.6199 21.0402 28.5883 21.0087C28.5567 20.9772 28.5322 20.9394 28.5163 20.8978C28.5003 20.8561 28.4934 20.8116 28.4959 20.7671C28.4984 20.7225 28.5102 20.679 28.5307 20.6394C28.5512 20.5998 28.5798 20.565 28.6147 20.5372C29.4132 19.7876 30.2984 19.1362 31.2514 18.5966C32.2051 18.0576 33.219 17.6328 34.272 17.331C34.857 17.1642 35.4525 17.0366 36.0545 16.9492C36.1362 16.9304 36.2219 16.9416 36.296 16.9808C36.3669 17.0226 36.4187 17.0903 36.4405 17.1696C36.4732 17.3194 36.3951 17.5324 36.2211 17.5567L36.2222 17.5503ZM37.8105 21.0603C36.7567 21.2117 35.7247 21.4879 34.7361 21.883L34.5547 21.9568L34.5062 21.9769C34.5062 21.9769 34.5547 21.9558 34.521 21.9695L34.4155 22.0159C34.2953 22.0686 34.1771 22.1214 34.059 22.1772C33.8154 22.2922 33.5749 22.4146 33.3397 22.5432C32.8744 22.7974 32.4246 23.0792 31.9929 23.387C31.8716 23.4724 31.7535 23.5589 31.6364 23.6485L31.5963 23.6802C31.5488 23.715 31.6174 23.6622 31.5868 23.6865C31.5562 23.7108 31.532 23.7287 31.5056 23.7508L31.3358 23.8858C31.1006 24.0778 30.8717 24.2792 30.6513 24.487C30.5906 24.5363 30.5137 24.5614 30.4355 24.5574C30.3573 24.5533 30.2835 24.5205 30.2281 24.4651C30.1728 24.4098 30.1399 24.3359 30.1359 24.2577C30.1318 24.1796 30.1569 24.1027 30.2062 24.0419C31.005 23.2927 31.8901 22.6412 32.8429 22.1013C33.7969 21.5628 34.8107 21.138 35.8636 20.8357C36.4485 20.6688 37.044 20.5416 37.646 20.4549C37.7276 20.4351 37.8138 20.4463 37.8875 20.4866C37.9582 20.5281 38.01 20.5954 38.032 20.6743C38.0668 20.8241 37.9877 21.0371 37.8126 21.0624L37.8105 21.0603ZM39.2386 24.4206C38.1848 24.5727 37.1528 24.8492 36.1642 25.2443L35.9828 25.3171L35.9342 25.3371L35.949 25.3308L35.8435 25.3772C35.7244 25.4288 35.6062 25.4826 35.4881 25.5385C35.2446 25.6526 35.0047 25.7743 34.7688 25.9035C34.3037 26.158 33.854 26.4398 33.422 26.7472C33.3007 26.8326 33.1826 26.9191 33.0655 27.0088L33.0254 27.0404C32.9779 27.0763 33.0465 27.0235 33.0159 27.0467C32.9853 27.0699 32.96 27.0889 32.9347 27.1111L32.7617 27.2492C32.5265 27.4412 32.2977 27.6426 32.0772 27.8504C32.0165 27.8988 31.94 27.9231 31.8625 27.9188C31.7849 27.9144 31.7117 27.8817 31.6567 27.8269C31.6017 27.772 31.5688 27.6988 31.5643 27.6213C31.5598 27.5438 31.5839 27.4673 31.6322 27.4064C32.4305 26.6567 33.3157 26.0052 34.2689 25.4658C35.2231 24.927 36.2372 24.5022 37.2906 24.2001C37.8754 24.0329 38.4709 23.9053 39.073 23.8183C39.1547 23.7995 39.2404 23.8108 39.3145 23.85C39.3852 23.8915 39.437 23.9588 39.459 24.0377C39.4928 24.1885 39.4126 24.4005 39.2396 24.4258L39.2386 24.4206Z" fill="#895130"/>
</g>
<defs>
<clipPath id="clip0_24898_10774">
<rect width="54" height="54" fill="white" transform="translate(0.75)"/>
</clipPath>
</defs>
</svg>
