<svg width="24" height="24" viewBox="0 0 24 24" fill="none" xmlns="http://www.w3.org/2000/svg">
<path d="M9.50929 4.22965L18.0693 8.50965C21.9093 10.4296 21.9093 13.5696 18.0693 15.4896L9.50929 19.7696C3.74929 22.6496 1.39929 20.2896 4.27929 14.5396L5.14929 12.8096C5.39929 12.2996 5.39929 11.7096 5.14929 11.1996L4.27929 9.45965C1.39929 3.70965 3.75929 1.34965 9.50929 4.22965Z" fill="#1A1A1A"/>
<path d="M14.8395 12.75H9.43945C9.02945 12.75 8.68945 12.41 8.68945 12C8.68945 11.59 9.02945 11.25 9.43945 11.25H14.8395C15.2495 11.25 15.5895 11.59 15.5895 12C15.5895 12.41 15.2495 12.75 14.8395 12.75Z" fill="#72BBFF"/>
</svg>
