<svg width="19" height="19" viewBox="0 0 19 19" fill="none" xmlns="http://www.w3.org/2000/svg">
<g clip-path="url(#clip0_24693_2540)">
<path fill-rule="evenodd" clip-rule="evenodd" d="M18.0224 1.02514C18.3176 1.32035 18.3176 1.79898 18.0224 2.09419L9.70713 10.4094C9.41192 10.7047 8.93329 10.7047 8.63808 10.4094C8.34287 10.1142 8.34287 9.6356 8.63808 9.34039L16.9533 1.02514C17.2485 0.72993 17.7272 0.72993 18.0224 1.02514Z" fill="#B1AFAA"/>
<path fill-rule="evenodd" clip-rule="evenodd" d="M18.0224 1.02514C18.2277 1.23048 18.2973 1.5353 18.2014 1.80939L12.9098 16.928C12.8074 17.2206 12.5368 17.421 12.2272 17.4336C11.9175 17.4462 11.6314 17.2686 11.5056 16.9853L8.59991 10.4476L2.0622 7.54197C1.77897 7.41609 1.60128 7.13007 1.61391 6.82038C1.62655 6.51069 1.82695 6.24009 2.11949 6.1377L17.2381 0.846171C17.5122 0.750239 17.817 0.8198 18.0224 1.02514ZM4.41861 6.9348L9.47962 9.18414C9.65064 9.26015 9.78738 9.39689 9.86339 9.56791L12.1127 14.6289L16.2557 2.79181L4.41861 6.9348Z" fill="#B1AFAA"/>
</g>
<defs>
<clipPath id="clip0_24693_2540">
<rect width="18.1424" height="18.1424" fill="white" transform="translate(0.857422 0.0478516)"/>
</clipPath>
</defs>
</svg>
