<svg width="16" height="16" viewBox="0 0 16 16" fill="none" xmlns="http://www.w3.org/2000/svg">
<path d="M12.0001 6.39961C12.4875 6.39963 12.9632 6.25129 13.3642 5.97433C13.7652 5.69737 14.0723 5.30491 14.2448 4.84914C14.4173 4.39336 14.447 3.89588 14.3299 3.42284C14.2128 2.9498 13.9544 2.52362 13.5892 2.20097C13.224 1.87832 12.7692 1.6745 12.2853 1.61661C11.8015 1.55871 11.3114 1.64949 10.8804 1.87687C10.4494 2.10425 10.0978 2.45745 9.87238 2.88951C9.64697 3.32157 9.55843 3.81201 9.61854 4.29561L5.66654 6.27161C5.32752 5.94469 4.89982 5.72475 4.43669 5.63917C3.97357 5.55359 3.4955 5.60616 3.06205 5.79033C2.62859 5.97451 2.2589 6.28214 1.99902 6.67492C1.73915 7.06769 1.60059 7.52825 1.60059 7.99921C1.60059 8.47017 1.73915 8.93073 1.99902 9.3235C2.2589 9.71628 2.62859 10.0239 3.06205 10.2081C3.4955 10.3923 3.97357 10.4448 4.43669 10.3593C4.89982 10.2737 5.32752 10.0537 5.66654 9.72681L9.61854 11.7028C9.54854 12.2646 9.67939 12.8331 9.98796 13.3077C10.2965 13.7824 10.763 14.1326 11.3048 14.2966C11.8467 14.4607 12.4291 14.4278 12.9491 14.204C13.4691 13.9801 13.8932 13.5797 14.1465 13.0734C14.3998 12.567 14.466 11.9875 14.3333 11.4371C14.2006 10.8868 13.8776 10.401 13.4215 10.0657C12.9653 9.73044 12.4053 9.56721 11.8404 9.60489C11.2755 9.64256 10.7421 9.87872 10.3345 10.2716L6.38254 8.29561C6.40675 8.09902 6.40675 7.9002 6.38254 7.70361L10.3345 5.72761C10.7649 6.14361 11.3521 6.39961 12.0001 6.39961Z" fill="#484848"/>
</svg>
