<svg width="36" height="36" viewBox="0 0 36 36" fill="none" xmlns="http://www.w3.org/2000/svg">
<path d="M17.75 0L23.0618 4.92609L30.3011 5.19885L30.5739 12.4382L35.5 17.75L30.5739 23.0618L30.3011 30.3011L23.0618 30.5739L17.75 35.5L12.4382 30.5739L5.19885 30.3011L4.92609 23.0618L0 17.75L4.92609 12.4382L5.19885 5.19885L12.4382 4.92609L17.75 0Z" fill="#3D668C" fill-opacity="0.7"/>
<path d="M20.8856 22.2382V23.25H15.3531V22.2382H17.6706V15.2532C17.5835 15.3838 17.4366 15.5252 17.2299 15.6775C17.0232 15.8298 16.7838 15.9713 16.5118 16.1018C16.2507 16.2324 15.9896 16.3412 15.7285 16.4282C15.4674 16.5153 15.228 16.5588 15.0104 16.5588V15.4817C15.2606 15.4817 15.5326 15.411 15.8264 15.2695C16.1202 15.1281 16.403 14.9649 16.675 14.7799C16.947 14.595 17.1755 14.4209 17.3605 14.2577C17.5454 14.0945 17.6488 13.9857 17.6706 13.9313H18.813V22.2382H20.8856Z" fill="white"/>
</svg>
