<svg width="25" height="24" viewBox="0 0 25 24" fill="none" xmlns="http://www.w3.org/2000/svg">
<path d="M3.4668 10.4958V15.4976C3.4668 18.3271 3.4668 19.7418 4.34548 20.6208C5.22416 21.4998 6.63837 21.4998 9.4668 21.4998H15.4668C18.2952 21.4998 19.7094 21.4998 20.5881 20.6208C21.4668 19.7418 21.4668 18.3271 21.4668 15.4976V10.4958" stroke="#979CA8" stroke-width="1.5" stroke-linecap="round"/>
<path d="M7.4668 17.993H11.4668" stroke="#979CA8" stroke-width="1.5" stroke-linecap="round"/>
<path d="M10.6038 8.41812C10.3218 9.43652 9.29628 11.1933 7.34777 11.4479C5.62733 11.6727 4.32246 10.9217 3.98916 10.6077C3.62168 10.3531 2.78416 9.53836 2.57906 9.02916C2.37395 8.51996 2.61324 7.41669 2.78416 6.9669L3.46743 4.98851C3.63423 4.49159 4.0247 3.31629 4.42501 2.91876C4.82533 2.52123 5.63581 2.50394 5.9694 2.50394H12.9749C14.7781 2.52941 18.7209 2.48786 19.5003 2.50394C20.2797 2.52002 20.7481 3.17336 20.8848 3.45342C22.0477 6.27024 22.5 7.88346 22.5 8.57088C22.3482 9.30419 21.72 10.6869 19.5003 11.2951C17.1933 11.9272 15.8854 10.6978 15.4751 10.2258M9.65522 10.2258C9.97997 10.6246 10.9987 11.4275 12.4754 11.4479C13.9522 11.4682 15.2273 10.4379 15.6802 9.92026C15.8084 9.7675 16.0853 9.31431 16.3725 8.41812" stroke="#979CA8" stroke-width="1.5" stroke-linecap="round" stroke-linejoin="round"/>
</svg>
