<svg width="25" height="24" viewBox="0 0 25 24" fill="none" xmlns="http://www.w3.org/2000/svg">
<path opacity="0.4" d="M3.99781 10.4971H3.69043V15.4985C3.69043 18.3277 3.69043 19.7423 4.56911 20.6213C5.44779 21.5003 6.862 21.5003 9.69043 21.5003H15.6904C18.5188 21.5003 19.933 21.5003 20.8117 20.6213C21.6904 19.7423 21.6904 18.3277 21.6904 15.4985V10.4971H21.383C20.5425 11.1197 19.4667 11.4974 18.4451 11.4974C17.4235 11.4974 16.4907 11.1197 15.7806 10.4971H15.3919C14.9689 10.9166 14.0519 11.4974 12.6897 11.4974C11.6681 11.4974 10.7353 11.1197 10.0252 10.4971H9.58706C8.54196 11.3626 7.40186 11.5285 6.93573 11.4974C5.91411 11.4974 4.83829 11.1197 3.99781 10.4971Z" fill="#E5B16F"/>
<path d="M10.7942 8.4197C10.5122 9.4384 9.48671 11.1956 7.5382 11.4503C5.81776 11.6752 4.51289 10.9239 4.17959 10.6099C3.81211 10.3552 2.97459 9.54027 2.76949 9.03092C2.56438 8.52157 2.80367 7.41799 2.97459 6.96806L3.65786 4.98911C3.82466 4.49205 4.21513 3.31641 4.61544 2.91876C5.01576 2.52112 5.82624 2.50381 6.15983 2.50381H13.1653C14.9685 2.5293 18.9113 2.48773 19.6907 2.50382C20.4701 2.51991 20.9385 3.17344 21.0752 3.45358C22.2381 6.27121 22.6904 7.88489 22.6904 8.57251C22.5386 9.30604 21.9104 10.6892 19.6907 11.2976C17.3837 11.9297 16.0758 10.7 15.6655 10.2278M9.84565 10.2278C10.1704 10.6269 11.1891 11.43 12.6658 11.4503C14.1426 11.4707 15.4177 10.4401 15.8706 9.92228C15.9988 9.76947 16.2757 9.31615 16.5629 8.4197" stroke="#E5B16F" stroke-width="1.5" stroke-linecap="round" stroke-linejoin="round"/>
<path d="M3.69043 10.4971V15.4985C3.69043 18.3277 3.69043 19.7423 4.56911 20.6213C5.44779 21.5003 6.862 21.5003 9.69043 21.5003H15.6904C18.5188 21.5003 19.933 21.5003 20.8117 20.6213C21.6904 19.7423 21.6904 18.3277 21.6904 15.4985V10.4971" stroke="#E5B16F" stroke-width="1.5"/>
<path d="M7.69043 17.999H11.6904" stroke="#E5B16F" stroke-width="1.5" stroke-linecap="round"/>
</svg>
