<svg width="13" height="12" viewBox="0 0 13 12" fill="none" xmlns="http://www.w3.org/2000/svg">
<path d="M1.5 4.99989V6.9999C1.5 7.9999 2 8.4999 3 8.4999H3.715C3.9 8.4999 4.085 8.5549 4.245 8.6499L5.705 9.5649C6.965 10.3549 8 9.7799 8 8.2949V3.70489C8 2.21489 6.965 1.64489 5.705 2.43489L4.245 3.34989C4.085 3.44489 3.9 3.49989 3.715 3.49989H3C2 3.49989 1.5 3.99989 1.5 4.99989Z" stroke="#5185B5"/>
<path d="M9.5 4C10.39 5.185 10.39 6.815 9.5 8" stroke="#5185B5" stroke-linecap="round" stroke-linejoin="round"/>
<path d="M10.4141 2.75C11.8591 4.675 11.8591 7.325 10.4141 9.25" stroke="#5185B5" stroke-linecap="round" stroke-linejoin="round"/>
</svg>
