<svg width="16" height="16" viewBox="0 0 16 16" fill="none" xmlns="http://www.w3.org/2000/svg">
<path d="M1.3335 6.66685V9.33352C1.3335 10.6669 2.00016 11.3335 3.3335 11.3335H4.28683C4.5335 11.3335 4.78016 11.4069 4.9935 11.5335L6.94016 12.7535C8.62016 13.8069 10.0002 13.0402 10.0002 11.0602V4.94018C10.0002 2.95352 8.62016 2.19352 6.94016 3.24685L4.9935 4.46685C4.78016 4.59352 4.5335 4.66685 4.28683 4.66685H3.3335C2.00016 4.66685 1.3335 5.33352 1.3335 6.66685Z" stroke="#484848" stroke-width="1.5"/>
<path d="M12 5.33301C13.1867 6.91301 13.1867 9.08634 12 10.6663" stroke="#484848" stroke-width="1.5" stroke-linecap="round" stroke-linejoin="round"/>
<path d="M13.2202 3.66699C15.1469 6.23366 15.1469 9.76699 13.2202 12.3337" stroke="#484848" stroke-width="1.5" stroke-linecap="round" stroke-linejoin="round"/>
</svg>
