<svg width="16" height="17" viewBox="0 0 16 17" fill="none" xmlns="http://www.w3.org/2000/svg">
<g clip-path="url(#clip0_24457_6122)">
<path d="M2 8.21582C2 9.00375 2.15519 9.78397 2.45672 10.5119C2.75825 11.2399 3.20021 11.9013 3.75736 12.4585C4.31451 13.0156 4.97595 13.4576 5.7039 13.7591C6.43185 14.0606 7.21207 14.2158 8 14.2158C8.78793 14.2158 9.56815 14.0606 10.2961 13.7591C11.0241 13.4576 11.6855 13.0156 12.2426 12.4585C12.7998 11.9013 13.2417 11.2399 13.5433 10.5119C13.8448 9.78397 14 9.00375 14 8.21582C14 6.62452 13.3679 5.0984 12.2426 3.97318C11.1174 2.84796 9.5913 2.21582 8 2.21582C6.4087 2.21582 4.88258 2.84796 3.75736 3.97318C2.63214 5.0984 2 6.62452 2 8.21582Z" stroke="#666666" stroke-linecap="round" stroke-linejoin="round"/>
<path d="M2.3999 6.21582H13.5999" stroke="#666666" stroke-linecap="round" stroke-linejoin="round"/>
<path d="M2.3999 10.2158H13.5999" stroke="#666666" stroke-linecap="round" stroke-linejoin="round"/>
<path d="M7.66677 2.21582C6.54367 4.01556 5.94824 6.0944 5.94824 8.21582C5.94824 10.3372 6.54367 12.4161 7.66677 14.2158" stroke="#666666" stroke-linecap="round" stroke-linejoin="round"/>
<path d="M8.3335 2.21582C9.4566 4.01556 10.052 6.0944 10.052 8.21582C10.052 10.3372 9.4566 12.4161 8.3335 14.2158" stroke="#666666" stroke-linecap="round" stroke-linejoin="round"/>
</g>
<defs>
<clipPath id="clip0_24457_6122">
<rect width="16" height="16" fill="white" transform="translate(0 0.21582)"/>
</clipPath>
</defs>
</svg>
