<svg width="33" height="33" viewBox="0 0 33 33" fill="none" xmlns="http://www.w3.org/2000/svg">
<g opacity="0.4">
<path d="M23.1667 27.403H9.83342C5.83341 27.403 3.16675 25.403 3.16675 20.7363V11.403C3.16675 6.73633 5.83341 4.73633 9.83342 4.73633H23.1667C27.1667 4.73633 29.8334 6.73633 29.8334 11.403V20.7363C29.8334 25.403 27.1667 27.403 23.1667 27.403Z" fill="#1A1A1A"/>
<path d="M23.1667 27.403H9.83342C5.83341 27.403 3.16675 25.403 3.16675 20.7363V11.403C3.16675 6.73633 5.83341 4.73633 9.83342 4.73633H23.1667C27.1667 4.73633 29.8334 6.73633 29.8334 11.403V20.7363C29.8334 25.403 27.1667 27.403 23.1667 27.403Z" fill="black" fill-opacity="0.2"/>
<path d="M23.1667 27.403H9.83342C5.83341 27.403 3.16675 25.403 3.16675 20.7363V11.403C3.16675 6.73633 5.83341 4.73633 9.83342 4.73633H23.1667C27.1667 4.73633 29.8334 6.73633 29.8334 11.403V20.7363C29.8334 25.403 27.1667 27.403 23.1667 27.403Z" fill="black" fill-opacity="0.2"/>
<path d="M23.1667 27.403H9.83342C5.83341 27.403 3.16675 25.403 3.16675 20.7363V11.403C3.16675 6.73633 5.83341 4.73633 9.83342 4.73633H23.1667C27.1667 4.73633 29.8334 6.73633 29.8334 11.403V20.7363C29.8334 25.403 27.1667 27.403 23.1667 27.403Z" fill="black" fill-opacity="0.2"/>
<path d="M23.1667 27.403H9.83342C5.83341 27.403 3.16675 25.403 3.16675 20.7363V11.403C3.16675 6.73633 5.83341 4.73633 9.83342 4.73633H23.1667C27.1667 4.73633 29.8334 6.73633 29.8334 11.403V20.7363C29.8334 25.403 27.1667 27.403 23.1667 27.403Z" fill="black" fill-opacity="0.2"/>
<path d="M23.1667 27.403H9.83342C5.83341 27.403 3.16675 25.403 3.16675 20.7363V11.403C3.16675 6.73633 5.83341 4.73633 9.83342 4.73633H23.1667C27.1667 4.73633 29.8334 6.73633 29.8334 11.403V20.7363C29.8334 25.403 27.1667 27.403 23.1667 27.403Z" fill="black" fill-opacity="0.2"/>
<path d="M23.1667 27.403H9.83342C5.83341 27.403 3.16675 25.403 3.16675 20.7363V11.403C3.16675 6.73633 5.83341 4.73633 9.83342 4.73633H23.1667C27.1667 4.73633 29.8334 6.73633 29.8334 11.403V20.7363C29.8334 25.403 27.1667 27.403 23.1667 27.403Z" fill="black" fill-opacity="0.2"/>
<path d="M23.1667 27.403H9.83342C5.83341 27.403 3.16675 25.403 3.16675 20.7363V11.403C3.16675 6.73633 5.83341 4.73633 9.83342 4.73633H23.1667C27.1667 4.73633 29.8334 6.73633 29.8334 11.403V20.7363C29.8334 25.403 27.1667 27.403 23.1667 27.403Z" fill="black" fill-opacity="0.2"/>
</g>
<path d="M16.5001 17.2293C15.3801 17.2293 14.2468 16.8826 13.3801 16.176L9.20678 12.8426C8.78011 12.496 8.70012 11.8693 9.04678 11.4426C9.39345 11.016 10.0201 10.936 10.4468 11.2826L14.6201 14.616C15.6334 15.4293 17.3534 15.4293 18.3668 14.616L22.5401 11.2826C22.9668 10.936 23.6068 11.0026 23.9401 11.4426C24.2868 11.8693 24.2201 12.5093 23.7801 12.8426L19.6068 16.176C18.7534 16.8826 17.6201 17.2293 16.5001 17.2293Z" fill="#1A1A1A"/>
<path d="M16.5001 17.2293C15.3801 17.2293 14.2468 16.8826 13.3801 16.176L9.20678 12.8426C8.78011 12.496 8.70012 11.8693 9.04678 11.4426C9.39345 11.016 10.0201 10.936 10.4468 11.2826L14.6201 14.616C15.6334 15.4293 17.3534 15.4293 18.3668 14.616L22.5401 11.2826C22.9668 10.936 23.6068 11.0026 23.9401 11.4426C24.2868 11.8693 24.2201 12.5093 23.7801 12.8426L19.6068 16.176C18.7534 16.8826 17.6201 17.2293 16.5001 17.2293Z" fill="black" fill-opacity="0.2"/>
<path d="M16.5001 17.2293C15.3801 17.2293 14.2468 16.8826 13.3801 16.176L9.20678 12.8426C8.78011 12.496 8.70012 11.8693 9.04678 11.4426C9.39345 11.016 10.0201 10.936 10.4468 11.2826L14.6201 14.616C15.6334 15.4293 17.3534 15.4293 18.3668 14.616L22.5401 11.2826C22.9668 10.936 23.6068 11.0026 23.9401 11.4426C24.2868 11.8693 24.2201 12.5093 23.7801 12.8426L19.6068 16.176C18.7534 16.8826 17.6201 17.2293 16.5001 17.2293Z" fill="black" fill-opacity="0.2"/>
<path d="M16.5001 17.2293C15.3801 17.2293 14.2468 16.8826 13.3801 16.176L9.20678 12.8426C8.78011 12.496 8.70012 11.8693 9.04678 11.4426C9.39345 11.016 10.0201 10.936 10.4468 11.2826L14.6201 14.616C15.6334 15.4293 17.3534 15.4293 18.3668 14.616L22.5401 11.2826C22.9668 10.936 23.6068 11.0026 23.9401 11.4426C24.2868 11.8693 24.2201 12.5093 23.7801 12.8426L19.6068 16.176C18.7534 16.8826 17.6201 17.2293 16.5001 17.2293Z" fill="black" fill-opacity="0.2"/>
<path d="M16.5001 17.2293C15.3801 17.2293 14.2468 16.8826 13.3801 16.176L9.20678 12.8426C8.78011 12.496 8.70012 11.8693 9.04678 11.4426C9.39345 11.016 10.0201 10.936 10.4468 11.2826L14.6201 14.616C15.6334 15.4293 17.3534 15.4293 18.3668 14.616L22.5401 11.2826C22.9668 10.936 23.6068 11.0026 23.9401 11.4426C24.2868 11.8693 24.2201 12.5093 23.7801 12.8426L19.6068 16.176C18.7534 16.8826 17.6201 17.2293 16.5001 17.2293Z" fill="black" fill-opacity="0.2"/>
<path d="M16.5001 17.2293C15.3801 17.2293 14.2468 16.8826 13.3801 16.176L9.20678 12.8426C8.78011 12.496 8.70012 11.8693 9.04678 11.4426C9.39345 11.016 10.0201 10.936 10.4468 11.2826L14.6201 14.616C15.6334 15.4293 17.3534 15.4293 18.3668 14.616L22.5401 11.2826C22.9668 10.936 23.6068 11.0026 23.9401 11.4426C24.2868 11.8693 24.2201 12.5093 23.7801 12.8426L19.6068 16.176C18.7534 16.8826 17.6201 17.2293 16.5001 17.2293Z" fill="black" fill-opacity="0.2"/>
<path d="M16.5001 17.2293C15.3801 17.2293 14.2468 16.8826 13.3801 16.176L9.20678 12.8426C8.78011 12.496 8.70012 11.8693 9.04678 11.4426C9.39345 11.016 10.0201 10.936 10.4468 11.2826L14.6201 14.616C15.6334 15.4293 17.3534 15.4293 18.3668 14.616L22.5401 11.2826C22.9668 10.936 23.6068 11.0026 23.9401 11.4426C24.2868 11.8693 24.2201 12.5093 23.7801 12.8426L19.6068 16.176C18.7534 16.8826 17.6201 17.2293 16.5001 17.2293Z" fill="black" fill-opacity="0.2"/>
<path d="M16.5001 17.2293C15.3801 17.2293 14.2468 16.8826 13.3801 16.176L9.20678 12.8426C8.78011 12.496 8.70012 11.8693 9.04678 11.4426C9.39345 11.016 10.0201 10.936 10.4468 11.2826L14.6201 14.616C15.6334 15.4293 17.3534 15.4293 18.3668 14.616L22.5401 11.2826C22.9668 10.936 23.6068 11.0026 23.9401 11.4426C24.2868 11.8693 24.2201 12.5093 23.7801 12.8426L19.6068 16.176C18.7534 16.8826 17.6201 17.2293 16.5001 17.2293Z" fill="black" fill-opacity="0.2"/>
</svg>
